<?xml version="1.0" encoding="UTF-8"?>
<svg version="1.1" xmlns="http://www.w3.org/2000/svg" width="225" height="225">
<path d="M0 0 C74.25 0 148.5 0 225 0 C225 74.25 225 148.5 225 225 C150.75 225 76.5 225 0 225 C0 150.75 0 76.5 0 0 Z " fill="#FDFEFD" transform="translate(0,0)"/>
<path d="M0 0 C0.28643366 5.53771745 0.24524216 9.24803827 -3 14 C-5.1875 14.875 -5.1875 14.875 -7 15 C-7 15.66 -7 16.32 -7 17 C-9.70879335 18.35439668 -12.00933268 18.06501451 -15 18 C-14.59007812 18.72445312 -14.18015625 19.44890625 -13.7578125 20.1953125 C-13.21898437 21.16210938 -12.68015625 22.12890625 -12.125 23.125 C-11.59132813 24.07632813 -11.05765625 25.02765625 -10.5078125 26.0078125 C-5.66146904 35.62516766 -5.21997339 47.39336278 -8.015625 57.76953125 C-9.84175424 62.23034696 -11.82734595 66.334011 -15 70 C-15.66 70 -16.32 70 -17 70 C-17.0721875 70.5878125 -17.144375 71.175625 -17.21875 71.78125 C-19.03832657 76.94884747 -25.92218612 79.95483459 -30.59375 82.3046875 C-32.71422705 83.24788671 -34.84615364 84.13660469 -37 85 C-37.99 85.495 -37.99 85.495 -39 86 C-52.76807484 87.37680748 -62.35436762 85.45429693 -74 78 C-74.75925781 77.52304688 -75.51851562 77.04609375 -76.30078125 76.5546875 C-83.27060084 71.39300292 -88.40765812 61.89030619 -89.7890625 53.40234375 C-90.91579741 40.57008502 -89.72448359 29.58181608 -82 19 C-81.38125 18.113125 -80.7625 17.22625 -80.125 16.3125 C-77.42901042 13.37862899 -74.45328803 10.99882435 -71 9 C-70.34 9 -69.68 9 -69 9 C-69 8.34 -69 7.68 -69 7 C-58.61800333 2.44006421 -47.09194602 1.03736199 -35.98828125 3.73046875 C-30.67684548 5.88138076 -27.86789902 8.92030986 -24.91015625 13.796875 C-23.76378239 16.57178855 -23.80377678 18.75862489 -23.875 21.75 C-23.89304687 22.73484375 -23.91109375 23.7196875 -23.9296875 24.734375 C-23.95289063 25.48203125 -23.97609375 26.2296875 -24 27 C-27 27 -27 27 -28.6875 25.625 C-30 24 -30 24 -30 22 C-30.928125 21.7834375 -30.928125 21.7834375 -31.875 21.5625 C-34 21 -34 21 -36 20 C-36 19.34 -36 18.68 -36 18 C-46.09956852 16.12522979 -55.35615861 16.34274187 -65 20 C-65 20.66 -65 21.32 -65 22 C-65.78375 22.61875 -66.5675 23.2375 -67.375 23.875 C-69.86229156 25.88852174 -70.85538266 27.08642859 -72 30 C-72.66 30 -73.32 30 -74 30 C-76.81297209 39.14215929 -77.55967873 47.51506384 -73.4375 56.375 C-69.6110143 63.23041349 -64.94324643 68.06937446 -57.36328125 70.52734375 C-49.31097786 72.13780443 -41.98130193 71.76180882 -34.70703125 67.875 C-33 67 -33 67 -31 67 C-31 66.34 -31 65.68 -31 65 C-30.34 65 -29.68 65 -29 65 C-28.505 63.515 -28.505 63.515 -28 62 C-27.34 62 -26.68 62 -26 62 C-25.731875 61.319375 -25.46375 60.63875 -25.1875 59.9375 C-24 57 -24 57 -22.4609375 54.19921875 C-19.98603628 48.43806006 -20.50397473 42.034992 -20.4375 35.875 C-20.40298833 33.37226492 -20.36034088 30.86962554 -20.30859375 28.3671875 C-20.29626709 27.26487793 -20.28394043 26.16256836 -20.27124023 25.02685547 C-19.99798266 21.9774879 -19.28779675 19.76025143 -18 17 C-19.32 17 -20.64 17 -22 17 C-24.03435531 13.27034861 -25 11.33094958 -25 7 C-20.05 7.495 -20.05 7.495 -15 8 C-15 7.34 -15 6.68 -15 6 C-4.8 0 -4.8 0 0 0 Z " fill="#EAA73E" transform="translate(159,34)"/>
<path d="M0 0 C2.64 0 5.28 0 8 0 C8 0.66 8 1.32 8 2 C13.28 2 18.56 2 24 2 C24.33 1.34 24.66 0.68 25 0 C25 0.66 25 1.32 25 2 C26.98 2 28.96 2 31 2 C31.33 1.34 31.66 0.68 32 0 C32.99 0.495 32.99 0.495 34 1 C34 1.99 34 2.98 34 4 C35.32 4.33 36.64 4.66 38 5 C38 5.66 38 6.32 38 7 C38.66 7 39.32 7 40 7 C40.2475 8.051875 40.495 9.10375 40.75 10.1875 C41.78212538 13.8220558 43.38990465 16.22677369 46 19 C46.66 19.33 47.32 19.66 48 20 C47.91321237 17.70760939 47.80504727 15.4160193 47.6875 13.125 C47.62949219 11.84882813 47.57148437 10.57265625 47.51171875 9.2578125 C47.25841797 7.64519531 47.25841797 7.64519531 47 6 C46.01 5.34 45.02 4.68 44 4 C46.97 4 49.94 4 53 4 C52.01 4.33 51.02 4.66 50 5 C50 12.92 50 20.84 50 29 C46.61727216 27.30863608 45.49144228 26.740813 43.2734375 24.06640625 C42.7990625 23.49986328 42.3246875 22.93332031 41.8359375 22.34960938 C41.35382813 21.75986328 40.87171875 21.17011719 40.375 20.5625 C39.88515625 19.97662109 39.3953125 19.39074219 38.890625 18.78710938 C36.78972029 16.25856149 34.82487704 13.73731556 33 11 C33 15.95 33 20.9 33 26 C34.485 26.495 34.485 26.495 36 27 C36 27.66 36 28.32 36 29 C28.22209364 29.0253109 20.44419786 29.04285035 12.66625977 29.05493164 C10.01912031 29.059967 7.37198365 29.06679563 4.72485352 29.07543945 C0.92463493 29.08753979 -2.87554695 29.09323622 -6.67578125 29.09765625 C-7.86335526 29.10281754 -9.05092926 29.10797882 -10.27449036 29.11329651 C-11.9258625 29.11340981 -11.9258625 29.11340981 -13.6105957 29.11352539 C-15.06620659 29.11685631 -15.06620659 29.11685631 -16.55122375 29.12025452 C-19 29 -19 29 -22 28 C-23.65569943 25.75790702 -25.05319111 23.4124563 -26.5 21.03125 C-27.9138396 18.7091093 -27.9138396 18.7091093 -31 18 C-30.505 21.96 -30.505 21.96 -30 26 C-29.01 26.33 -28.02 26.66 -27 27 C-27 27.66 -27 28.32 -27 29 C-36.69570954 29.92972557 -46.27342548 30.11237377 -56 30 C-56 29.34 -56 28.68 -56 28 C-57.32 27.67 -58.64 27.34 -60 27 C-60 26.34 -60 25.68 -60 25 C-60.66 25 -61.32 25 -62 25 C-64.7380531 21.63008849 -65.6415683 18.49365884 -65.4921875 14.13671875 C-64.56090656 10.09377688 -62.03243071 6.77419452 -59 4 C-58.01 4 -57.02 4 -56 4 C-56 3.34 -56 2.68 -56 2 C-51.05 2 -46.1 2 -41 2 C-40.875 10.75 -40.875 10.75 -42 13 C-43.32 13 -44.64 13 -46 13 C-46 12.01 -46 11.02 -46 10 C-46.66 10 -47.32 10 -48 10 C-48 11.98 -48 13.96 -48 16 C-44.37 16 -40.74 16 -37 16 C-37 12.7 -37 9.4 -37 6 C-37.99 6 -38.98 6 -40 6 C-40 5.01 -40 4.02 -40 3 C-37.43685501 2.91867813 -34.87631582 2.85935825 -32.3125 2.8125 C-31.2306543 2.77479492 -31.2306543 2.77479492 -30.12695312 2.73632812 C-25.58981884 2.6741756 -22.47624834 2.9582827 -19 6 C-18.33086597 8.79965679 -18.76131159 11.08800141 -19 14 C-20.32 14.33 -21.64 14.66 -23 15 C-21.5449678 19.12259123 -19.72797398 22.57054699 -17 26 C-15.35 26.33 -13.7 26.66 -12 27 C-12 19.74 -12 12.48 -12 5 C-13.32 4.67 -14.64 4.34 -16 4 C-12.47844036 1.65229357 -10.49228157 1.62330386 -6.3125 1.375 C-5.13300781 1.30023438 -3.95351562 1.22546875 -2.73828125 1.1484375 C-1.83464844 1.09945312 -0.93101563 1.05046875 0 1 C0 0.67 0 0.34 0 0 Z " fill="#EDF6DA" transform="translate(80,132)"/>
<path d="M0 0 C3.63307991 2.69213835 5.92157066 6.07425325 7.62890625 10.20703125 C7.82421875 13.00390625 7.82421875 13.00390625 7.75390625 15.95703125 C7.73585938 16.941875 7.7178125 17.92671875 7.69921875 18.94140625 C7.67601562 19.6890625 7.6528125 20.43671875 7.62890625 21.20703125 C4.62890625 21.20703125 4.62890625 21.20703125 2.94140625 19.83203125 C1.62890625 18.20703125 1.62890625 18.20703125 1.62890625 16.20703125 C0.70078125 15.99046875 0.70078125 15.99046875 -0.24609375 15.76953125 C-2.37109375 15.20703125 -2.37109375 15.20703125 -4.37109375 14.20703125 C-4.37109375 13.54703125 -4.37109375 12.88703125 -4.37109375 12.20703125 C-14.47066227 10.33226104 -23.72725236 10.54977312 -33.37109375 14.20703125 C-33.37109375 14.86703125 -33.37109375 15.52703125 -33.37109375 16.20703125 C-34.15484375 16.82578125 -34.93859375 17.44453125 -35.74609375 18.08203125 C-38.23338531 20.09555299 -39.22647641 21.29345984 -40.37109375 24.20703125 C-41.03109375 24.20703125 -41.69109375 24.20703125 -42.37109375 24.20703125 C-43.03109375 26.84703125 -43.69109375 29.48703125 -44.37109375 32.20703125 C-45.03109375 32.20703125 -45.69109375 32.20703125 -46.37109375 32.20703125 C-46.37109375 37.48703125 -46.37109375 42.76703125 -46.37109375 48.20703125 C-48.35109375 48.20703125 -50.33109375 48.20703125 -52.37109375 48.20703125 C-52.16484375 48.82578125 -51.95859375 49.44453125 -51.74609375 50.08203125 C-51.62234375 50.78328125 -51.49859375 51.48453125 -51.37109375 52.20703125 C-52.03109375 52.86703125 -52.69109375 53.52703125 -53.37109375 54.20703125 C-54.03109375 53.87703125 -54.69109375 53.54703125 -55.37109375 53.20703125 C-56.88601084 48.43216601 -56.51786504 43.28862918 -56.49609375 38.33203125 C-56.49996094 37.45933594 -56.50382812 36.58664063 -56.5078125 35.6875 C-56.49431854 26.71401397 -55.61165618 20.56247941 -50.37109375 13.20703125 C-49.44296875 11.87671875 -49.44296875 11.87671875 -48.49609375 10.51953125 C-45.80010417 7.58566024 -42.82438178 5.2058556 -39.37109375 3.20703125 C-38.71109375 3.20703125 -38.05109375 3.20703125 -37.37109375 3.20703125 C-37.37109375 2.54703125 -37.37109375 1.88703125 -37.37109375 1.20703125 C-26.34900667 -3.63404229 -11.08259378 -6.13771828 0 0 Z " fill="#EDA438" transform="translate(127.37109375,39.79296875)"/>
<path d="M0 0 C0.28643366 5.53771745 0.24524216 9.24803827 -3 14 C-5.1875 14.875 -5.1875 14.875 -7 15 C-7 15.66 -7 16.32 -7 17 C-9.70879335 18.35439668 -12.00933268 18.06501451 -15 18 C-14.59007812 18.72445312 -14.18015625 19.44890625 -13.7578125 20.1953125 C-13.21898437 21.16210938 -12.68015625 22.12890625 -12.125 23.125 C-11.32449219 24.55199219 -11.32449219 24.55199219 -10.5078125 26.0078125 C-5.66146904 35.62516766 -5.21997339 47.39336278 -8.015625 57.76953125 C-9.84175424 62.23034696 -11.82734595 66.334011 -15 70 C-15.66 70 -16.32 70 -17 70 C-17.66 71.32 -18.32 72.64 -19 74 C-24 68.375 -24 68.375 -24 65 C-27.465 65.495 -27.465 65.495 -31 66 C-30.01 65.505 -30.01 65.505 -29 65 C-28.67 64.01 -28.34 63.02 -28 62 C-27.34 62 -26.68 62 -26 62 C-25.731875 61.319375 -25.46375 60.63875 -25.1875 59.9375 C-24 57 -24 57 -22.4609375 54.19921875 C-19.98603628 48.43806006 -20.50397473 42.034992 -20.4375 35.875 C-20.40298833 33.37226492 -20.36034088 30.86962554 -20.30859375 28.3671875 C-20.29626709 27.26487793 -20.28394043 26.16256836 -20.27124023 25.02685547 C-19.99798266 21.9774879 -19.28779675 19.76025143 -18 17 C-19.32 17 -20.64 17 -22 17 C-24.03435531 13.27034861 -25 11.33094958 -25 7 C-21.7 7.33 -18.4 7.66 -15 8 C-15 7.34 -15 6.68 -15 6 C-4.8 0 -4.8 0 0 0 Z " fill="#ECA538" transform="translate(159,34)"/>
<path d="M0 0 C74.25 0 148.5 0 225 0 C225 0.99 225 1.98 225 3 C150.75 3 76.5 3 0 3 C0 2.01 0 1.02 0 0 Z " fill="#000000" transform="translate(0,222)"/>
<path d="M0 0 C4.95 0 9.9 0 15 0 C15.125 8.75 15.125 8.75 14 11 C12.68 11 11.36 11 10 11 C10 10.01 10 9.02 10 8 C9.34 8 8.68 8 8 8 C8 9.98 8 11.96 8 14 C11.63 14 15.26 14 19 14 C19 10.7 19 7.4 19 4 C18.01 4 17.02 4 16 4 C16 3.01 16 2.02 16 1 C21.28 1 26.56 1 32 1 C32 1.33 32 1.66 32 2 C28.37 2.33 24.74 2.66 21 3 C21 10.26 21 17.52 21 25 C20.01 25 19.02 25 18 25 C18 25.66 18 26.32 18 27 C14.81175432 28.59412284 11.37103338 28.10174735 7.875 28.0625 C7.12089844 28.05798828 6.36679687 28.05347656 5.58984375 28.04882812 C3.72652873 28.03703499 1.86325445 28.01909942 0 28 C0 27.34 0 26.68 0 26 C-1.32 25.67 -2.64 25.34 -4 25 C-4 24.34 -4 23.68 -4 23 C-4.66 23 -5.32 23 -6 23 C-8.7380531 19.63008849 -9.6415683 16.49365884 -9.4921875 12.13671875 C-8.56090656 8.09377688 -6.03243071 4.77419452 -3 2 C-2.01 2 -1.02 2 0 2 C0 1.34 0 0.68 0 0 Z " fill="#F9FBF4" transform="translate(24,134)"/>
<path d="M0 0 C2.97922593 -0.02683987 5.95821295 -0.04676037 8.9375 -0.0625 C10.21270508 -0.07506836 10.21270508 -0.07506836 11.51367188 -0.08789062 C12.32255859 -0.09111328 13.13144531 -0.09433594 13.96484375 -0.09765625 C14.7137085 -0.10289307 15.46257324 -0.10812988 16.23413086 -0.11352539 C18 0 18 0 19 1 C19.04063832 2.66617115 19.042721 4.33388095 19 6 C18.01 5.34 17.02 4.68 16 4 C16 3.34 16 2.68 16 2 C13.69 2 11.38 2 9 2 C9 5.3 9 8.6 9 12 C13.47883696 11.55296014 13.47883696 11.55296014 17 9 C17 11.64 17 14.28 17 17 C16.34 16.34 15.68 15.68 15 15 C13.01178687 14.60235737 11.01055661 14.26224651 9 14 C9.33 16.97 9.66 19.94 10 23 C12.64 23 15.28 23 18 23 C18.33 21.68 18.66 20.36 19 19 C19.66 19 20.32 19 21 19 C20.67 21.31 20.34 23.62 20 26 C16.22918278 26.02899599 12.45839417 26.04679729 8.6875 26.0625 C7.0797168 26.07506836 7.0797168 26.07506836 5.43945312 26.08789062 C3.89741211 26.09272461 3.89741211 26.09272461 2.32421875 26.09765625 C1.37635498 26.10289307 0.42849121 26.10812988 -0.5480957 26.11352539 C-3 26 -3 26 -6 25 C-7.65569943 22.75790702 -9.05319111 20.4124563 -10.5 18.03125 C-11.9138396 15.7091093 -11.9138396 15.7091093 -15 15 C-14.67 17.64 -14.34 20.28 -14 23 C-13.01 23.33 -12.02 23.66 -11 24 C-11 24.66 -11 25.32 -11 26 C-14.63 26 -18.26 26 -22 26 C-22 25.34 -22 24.68 -22 24 C-21.01 24 -20.02 24 -19 24 C-19 16.74 -19 9.48 -19 2 C-19.99 1.67 -20.98 1.34 -22 1 C-19.39555652 0.94605295 -16.79223002 0.90635531 -14.1875 0.875 C-13.44951172 0.85824219 -12.71152344 0.84148437 -11.95117188 0.82421875 C-8.08753574 0.78925372 -6.29096332 0.80602445 -3 3 C-2.59156077 5.71203652 -2.86663133 8.2437142 -3 11 C-4.32 11.33 -5.64 11.66 -7 12 C-5.5449678 16.12259123 -3.72797398 19.57054699 -1 23 C0.65 23.33 2.3 23.66 4 24 C4 16.74 4 9.48 4 2 C2.68 1.67 1.36 1.34 0 1 C0 0.67 0 0.34 0 0 Z " fill="#94BA55" transform="translate(64,135)"/>
<path d="M0 0 C0.268125 0.78375 0.53625 1.5675 0.8125 2.375 C1.84814432 5.28114923 1.84814432 5.28114923 5 7 C2.74546048 12.53276185 -1.91657546 15.21254207 -7 18 C-14.95852132 20.76136573 -24.67195363 20.92093735 -33 20 C-35.44140625 18.48046875 -35.44140625 18.48046875 -37 17 C-36.67 16.67 -36.34 16.34 -36 16 C-37.32 15.34 -38.64 14.68 -40 14 C-37.75470565 10.63205848 -36.68407814 10.28942735 -33 9 C-32.34 8.67 -31.68 8.34 -31 8 C-28.93749363 7.97980763 -26.87438315 8.00792772 -24.8125 8.0625 C-18.05671891 8.11469698 -12.96201831 7.33873025 -7 4 C-7 3.01 -7 2.02 -7 1 C-4.50935112 0.31292445 -2.62113708 0 0 0 Z " fill="#EEA435" transform="translate(135,99)"/>
<path d="M0 0 C10.64453125 -0.390625 10.64453125 -0.390625 14 0 C16.4437533 2.32550717 16.95748443 3.37643832 17.1875 6.75 C17.0946875 7.86375 17.0946875 7.86375 17 9 C15.02 9.99 15.02 9.99 13 11 C13.68222506 12.63613266 14.39698749 14.25872066 15.125 15.875 C15.51945312 16.77992188 15.91390625 17.68484375 16.3203125 18.6171875 C18.14636877 21.70789963 18.14636877 21.70789963 24 23 C24 15.74 24 8.48 24 1 C23.01 0.67 22.02 0.34 21 0 C24.63 0 28.26 0 32 0 C31.01 0.33 30.02 0.66 29 1 C29 8.26 29 15.52 29 23 C29.99 23 30.98 23 32 23 C32 23.66 32 24.32 32 25 C29.58303128 25.05411124 27.16728213 25.09372278 24.75 25.125 C24.06808594 25.14175781 23.38617188 25.15851563 22.68359375 25.17578125 C18.96536315 25.21188058 16.05991111 25.23719916 13 23 C10.97671732 20.35224736 9 17.39952923 9 14 C7.68 14 6.36 14 5 14 C5 16.97 5 19.94 5 23 C6.32 23 7.64 23 9 23 C9 23.66 9 24.32 9 25 C5.37 25 1.74 25 -2 25 C-2 24.34 -2 23.68 -2 23 C-1.01 23 -0.02 23 1 23 C0.67 15.41 0.34 7.82 0 0 Z " fill="#9BBB5F" transform="translate(142,136)"/>
<path d="M0 0 C1.29421875 -0.00128906 2.5884375 -0.00257813 3.921875 -0.00390625 C4.93072754 -0.00076416 4.93072754 -0.00076416 5.95996094 0.00244141 C8.02286065 0.007811 10.08554439 0.0024789 12.1484375 -0.00390625 C13.44007813 -0.00261719 14.73171875 -0.00132812 16.0625 0 C17.25311035 0.00112793 18.4437207 0.00225586 19.67041016 0.00341797 C22.3984375 0.1328125 22.3984375 0.1328125 23.3984375 1.1328125 C23.43907582 2.79898365 23.4411585 4.46669345 23.3984375 6.1328125 C22.7384375 6.1328125 22.0784375 6.1328125 21.3984375 6.1328125 C20.9034375 4.1528125 20.9034375 4.1528125 20.3984375 2.1328125 C18.0884375 2.1328125 15.7784375 2.1328125 13.3984375 2.1328125 C13.3984375 5.1028125 13.3984375 8.0728125 13.3984375 11.1328125 C16.0384375 10.4728125 18.6784375 9.8128125 21.3984375 9.1328125 C21.3984375 11.7728125 21.3984375 14.4128125 21.3984375 17.1328125 C20.7384375 16.4728125 20.0784375 15.8128125 19.3984375 15.1328125 C17.41022437 14.73516987 15.40899411 14.39505901 13.3984375 14.1328125 C13.3984375 17.4328125 13.3984375 20.7328125 13.3984375 24.1328125 C18.40692877 23.93421271 18.40692877 23.93421271 22.2109375 21.0703125 C22.6028125 20.4309375 22.9946875 19.7915625 23.3984375 19.1328125 C24.0584375 19.1328125 24.7184375 19.1328125 25.3984375 19.1328125 C25.5234375 21.5078125 25.5234375 21.5078125 25.3984375 24.1328125 C23.3984375 26.1328125 23.3984375 26.1328125 21.42724609 26.35986328 C20.64172363 26.34938965 19.85620117 26.33891602 19.046875 26.328125 C18.19609375 26.32167969 17.3453125 26.31523437 16.46875 26.30859375 C15.13457031 26.28345703 15.13457031 26.28345703 13.7734375 26.2578125 C12.87625 26.24878906 11.9790625 26.23976562 11.0546875 26.23046875 C8.83567164 26.2068622 6.61718673 26.1739356 4.3984375 26.1328125 C4.3984375 25.4728125 4.3984375 24.8128125 4.3984375 24.1328125 C5.7184375 24.1328125 7.0384375 24.1328125 8.3984375 24.1328125 C8.3984375 16.8728125 8.3984375 9.6128125 8.3984375 2.1328125 C7.0784375 2.1328125 5.7584375 2.1328125 4.3984375 2.1328125 C4.0684375 3.7828125 3.7384375 5.4328125 3.3984375 7.1328125 C2.7384375 7.1328125 2.0784375 7.1328125 1.3984375 7.1328125 C0.7384375 5.8128125 0.0784375 4.4928125 -0.6015625 3.1328125 C-2.2515625 3.1328125 -3.9015625 3.1328125 -5.6015625 3.1328125 C-5.76843698 5.54927032 -5.76843698 5.54927032 -5.6015625 8.1328125 C-3.73376903 10.27136495 -3.73376903 10.27136495 -1.1640625 11.0703125 C2.81876083 12.72172705 2.81876083 12.72172705 4.3984375 15.1328125 C4.8984375 18.5703125 4.8984375 18.5703125 4.3984375 22.1328125 C2.21488173 24.87986653 0.63279163 25.96468496 -2.8671875 26.44140625 C-5.18662671 26.50500378 -7.31248713 26.5195718 -9.6015625 26.1328125 C-11.6015625 24.1328125 -11.6015625 24.1328125 -11.7265625 21.0078125 C-11.6853125 20.0590625 -11.6440625 19.1103125 -11.6015625 18.1328125 C-11.2715625 18.7928125 -10.9415625 19.4528125 -10.6015625 20.1328125 C-9.9415625 20.1328125 -9.2815625 20.1328125 -8.6015625 20.1328125 C-8.2715625 21.1228125 -7.9415625 22.1128125 -7.6015625 23.1328125 C-5.6215625 23.1328125 -3.6415625 23.1328125 -1.6015625 23.1328125 C-1.6327566 20.26546729 -1.6327566 20.26546729 -2.6015625 17.1328125 C-5.41576883 14.81221019 -5.41576883 14.81221019 -8.6015625 13.1328125 C-9.5915625 12.4728125 -10.5815625 11.8128125 -11.6015625 11.1328125 C-11.99664143 6.78694422 -12.05487252 4.81277753 -9.6015625 1.1328125 C-6.20183967 -0.00042844 -3.58299149 0.00338794 0 0 Z " fill="#99BB5A" transform="translate(187.6015625,134.8671875)"/>
<path d="M0 0 C5.94 0 11.88 0 18 0 C18 1.65 18 3.3 18 5 C17.649375 4.525625 17.29875 4.05125 16.9375 3.5625 C14.15836457 1.32126175 11.4855283 1.32882342 8 1 C8 4.3 8 7.6 8 11 C9.98 11 11.96 11 14 11 C14 10.01 14 9.02 14 8 C14.66 8 15.32 8 16 8 C16 10.31 16 12.62 16 15 C13.36 14.34 10.72 13.68 8 13 C8 16.3 8 19.6 8 23 C10.97 23 13.94 23 17 23 C17.33 21.35 17.66 19.7 18 18 C18.66 18 19.32 18 20 18 C20 19.65 20 21.3 20 23 C20.99 23 21.98 23 23 23 C23.33 16.07 23.66 9.14 24 2 C22.68 1.34 21.36 0.68 20 0 C23.14453125 -0.359375 23.14453125 -0.359375 27 0 C29.25681638 1.90110625 30.86937409 3.50023269 32.6875 5.75 C33.60745273 6.82865425 34.52801448 7.90678941 35.44921875 8.984375 C36.29097656 9.97953125 37.13273437 10.9746875 38 12 C39.3166894 13.34977205 40.64304561 14.6907138 42 16 C41.91321237 13.70760939 41.80504727 11.4160193 41.6875 9.125 C41.62949219 7.84882813 41.57148437 6.57265625 41.51171875 5.2578125 C41.25841797 3.64519531 41.25841797 3.64519531 41 2 C40.01 1.34 39.02 0.68 38 0 C40.97 0 43.94 0 47 0 C46.01 0.33 45.02 0.66 44 1 C44 8.92 44 16.84 44 25 C40.61727216 23.30863608 39.49144228 22.740813 37.2734375 20.06640625 C36.7990625 19.49986328 36.3246875 18.93332031 35.8359375 18.34960938 C35.35382813 17.75986328 34.87171875 17.17011719 34.375 16.5625 C33.64023438 15.68368164 33.64023438 15.68368164 32.890625 14.78710938 C30.78972029 12.25856149 28.82487704 9.73731556 27 7 C27 11.95 27 16.9 27 22 C27.99 22.33 28.98 22.66 30 23 C30 23.66 30 24.32 30 25 C20.1 25 10.2 25 0 25 C0 24.34 0 23.68 0 23 C0.99 23 1.98 23 3 23 C3 15.74 3 8.48 3 1 C2.01 0.67 1.02 0.34 0 0 Z " fill="#95BA53" transform="translate(86,136)"/>
<path d="M0 0 C0.66 0.33 1.32 0.66 2 1 C2.38749213 3.32495277 2.71758117 5.6599583 3 8 C3.33 8.99 3.66 9.98 4 11 C5.32 11 6.64 11 8 11 C7.83717529 11.69730225 7.67435059 12.39460449 7.5065918 13.11303711 C6.96483469 16.20039989 6.89005034 19.05783814 6.89453125 22.19140625 C6.87229492 23.98094727 6.87229492 23.98094727 6.84960938 25.80664062 C6.8251411 28.28308773 6.81950177 30.75980249 6.83398438 33.23632812 C6.68119539 41.8712209 5.08415961 48.85824738 0 56 C-1.485 56.495 -1.485 56.495 -3 57 C-2.67 55.68 -2.34 54.36 -2 53 C-1.34 53 -0.68 53 0 53 C0 52.01 0 51.02 0 50 C-0.804375 49.71125 -1.60875 49.4225 -2.4375 49.125 C-5 48 -5 48 -6 46 C-6.66 46 -7.32 46 -8 46 C-7.67 44.68 -7.34 43.36 -7 42 C-8.65 41.67 -10.3 41.34 -12 41 C-12.33 41.66 -12.66 42.32 -13 43 C-12.98259766 42.11248047 -12.98259766 42.11248047 -12.96484375 41.20703125 C-12.95582031 40.41683594 -12.94679688 39.62664062 -12.9375 38.8125 C-12.92009766 37.64654297 -12.92009766 37.64654297 -12.90234375 36.45703125 C-13.00481427 33.87887289 -13.43302447 31.51344269 -14 29 C-11.73044814 28.77814156 -9.45926245 28.57294485 -7.1875 28.375 C-5.29064453 28.20097656 -5.29064453 28.20097656 -3.35546875 28.0234375 C0 28 0 28 3 30 C2.67 27.69 2.34 25.38 2 23 C0.35 23.33 -1.3 23.66 -3 24 C-2.67 22.35 -2.34 20.7 -2 19 C-1.67 19.66 -1.34 20.32 -1 21 C-0.01 21 0.98 21 2 21 C1.88487847 19.27014758 1.75744323 17.54111249 1.625 15.8125 C1.55539063 14.84957031 1.48578125 13.88664062 1.4140625 12.89453125 C0.99731978 9.98126376 0.09938836 7.71182461 -1 5 C-0.625 2.1875 -0.625 2.1875 0 0 Z " fill="#F6F8E8" transform="translate(133,40)"/>
<path d="M0 0 C0.08159574 4.16138263 -0.01751476 7.9472484 -1 12 C-3.97 12 -6.94 12 -10 12 C-10 19.26 -10 26.52 -10 34 C-11.65 34 -13.3 34 -15 34 C-16.80078125 32.13671875 -16.80078125 32.13671875 -18.3125 29.6875 C-19.08013672 28.48673828 -19.08013672 28.48673828 -19.86328125 27.26171875 C-21 25 -21 25 -21 22 C-20.01 21.34 -19.02 20.68 -18 20 C-18.18464366 15.65815798 -18.18464366 15.65815798 -20 12 C-21.34267413 11.91368126 -22.68974322 11.89293527 -24.03515625 11.90234375 C-24.84404297 11.90556641 -25.65292969 11.90878906 -26.48632812 11.91210938 C-27.7615332 11.92467773 -27.7615332 11.92467773 -29.0625 11.9375 C-29.91650391 11.94201172 -30.77050781 11.94652344 -31.65039062 11.95117188 C-33.76695663 11.96299627 -35.88348685 11.98093231 -38 12 C-38 11.01 -38 10.02 -38 9 C-34.89601022 8.91289711 -31.79233452 8.85957691 -28.6875 8.8125 C-27.80642578 8.78736328 -26.92535156 8.76222656 -26.01757812 8.73632812 C-24.74624023 8.72182617 -24.74624023 8.72182617 -23.44921875 8.70703125 C-22.27879028 8.68346558 -22.27879028 8.68346558 -21.0847168 8.65942383 C-18.50096147 9.08152696 -17.63707833 10.01489942 -16 12 C-16 9.69 -16 7.38 -16 5 C-15.34 4.67 -14.68 4.34 -14 4 C-14.33 5.32 -14.66 6.64 -15 8 C-14.34 8 -13.68 8 -13 8 C-13 6.35 -13 4.7 -13 3 C-8.37802694 0.78145293 -5.23175837 -0.38281159 0 0 Z " fill="#F7F9EE" transform="translate(176,125)"/>
<path d="M0 0 C0.28643366 5.53771745 0.24524216 9.24803827 -3 14 C-5.1875 14.875 -5.1875 14.875 -7 15 C-7 15.66 -7 16.32 -7 17 C-10.3 17.66 -13.6 18.32 -17 19 C-17.33 18.34 -17.66 17.68 -18 17 C-19.32 17 -20.64 17 -22 17 C-24.03435531 13.27034861 -25 11.33094958 -25 7 C-21.7 7.33 -18.4 7.66 -15 8 C-15 7.34 -15 6.68 -15 6 C-4.8 0 -4.8 0 0 0 Z " fill="#96BD51" transform="translate(159,34)"/>
<path d="M0 0 C0.33 0 0.66 0 1 0 C1.66 1.98 2.32 3.96 3 6 C3.66 5.67 4.32 5.34 5 5 C4.34 12.92 3.68 20.84 3 29 C1.02 29 -0.96 29 -3 29 C-2.79375 29.61875 -2.5875 30.2375 -2.375 30.875 C-2.25125 31.57625 -2.1275 32.2775 -2 33 C-2.66 33.66 -3.32 34.32 -4 35 C-4.66 34.67 -5.32 34.34 -6 34 C-7.53969508 29.17627175 -7.14667005 23.94689433 -7.125 18.9375 C-7.12886719 18.03966797 -7.13273437 17.14183594 -7.13671875 16.21679688 C-7.13542969 15.34990234 -7.13414063 14.48300781 -7.1328125 13.58984375 C-7.13168457 12.80472412 -7.13055664 12.01960449 -7.12939453 11.21069336 C-7.00121514 9.0207606 -6.60390331 7.10406629 -6 5 C-5.34 5 -4.68 5 -4 5 C-3.67 4.34 -3.34 3.68 -3 3 C-3 3.66 -3 4.32 -3 5 C-2.01 5 -1.02 5 0 5 C0 3.35 0 1.7 0 0 Z " fill="#EFA334" transform="translate(78,59)"/>
<path d="M0 0 C1.65 0.33 3.3 0.66 5 1 C5 8.26 5 15.52 5 23 C3.68 23 2.36 23 1 23 C1 23.66 1 24.32 1 25 C1.55985596 24.96970703 2.11971191 24.93941406 2.6965332 24.90820312 C5.23514498 24.77130816 7.77382091 24.63564062 10.3125 24.5 C11.19357422 24.45230469 12.07464844 24.40460938 12.98242188 24.35546875 C14.25375977 24.28779297 14.25375977 24.28779297 15.55078125 24.21875 C16.33106689 24.17685547 17.11135254 24.13496094 17.9152832 24.09179688 C19.60882396 24.01722476 21.30481821 24 23 24 C23 24.66 23 25.32 23 26 C20.05868109 26.98043964 18.17498335 27.11621202 15.11328125 27.09765625 C14.17548828 27.09443359 13.23769531 27.09121094 12.27148438 27.08789062 C11.29501953 27.07951172 10.31855469 27.07113281 9.3125 27.0625 C8.32443359 27.05798828 7.33636719 27.05347656 6.31835938 27.04882812 C3.87884526 27.03704303 1.43945311 27.02059011 -1 27 C-0.34 27.33 0.32 27.66 1 28 C1 28.66 1 29.32 1 30 C-1.64 30 -4.28 30 -7 30 C-6.01 29.67 -5.02 29.34 -4 29 C-4 28.34 -4 27.68 -4 27 C-6.97 26.67 -9.94 26.34 -13 26 C-13 25.67 -13 25.34 -13 25 C-12.39671875 24.96261719 -11.7934375 24.92523438 -11.171875 24.88671875 C-7.66894358 24.59857439 -4.67303925 24.29548065 -1.4375 22.875 C0.82481804 19.92415038 0.44866107 17.58928854 0 14 C-1.97919234 10.97912749 -4.71630949 10.26295789 -8 9 C-10 7 -10 7 -10.1875 4.4375 C-10 2 -10 2 -9 1 C-6.5625 0.8125 -6.5625 0.8125 -4 1 C-2 3 -2 3 -2 6 C-1.34 6 -0.68 6 0 6 C0 4.02 0 2.04 0 0 Z " fill="#F7FBF0" transform="translate(191,136)"/>
<path d="M0 0 C7.10894935 -0.14279095 7.10894935 -0.14279095 9.53515625 1.0703125 C9.53515625 3.0503125 9.53515625 5.0303125 9.53515625 7.0703125 C9.04015625 6.4103125 8.54515625 5.7503125 8.03515625 5.0703125 C4.34691951 2.11972311 2.19008488 2.55309821 -2.46484375 3.0703125 C-4.63960776 4.61369341 -5.28317012 5.70696523 -6.46484375 8.0703125 C-6.92728627 13.44755107 -6.53294822 18.02930785 -4.46484375 23.0703125 C-1.16484375 23.4003125 2.13515625 23.7303125 5.53515625 24.0703125 C5.43203125 22.7915625 5.32890625 21.5128125 5.22265625 20.1953125 C5.16464844 19.47601563 5.10664062 18.75671875 5.046875 18.015625 C4.66122589 15.67512034 4.66122589 15.67512034 1.53515625 14.0703125 C4.83515625 14.0703125 8.13515625 14.0703125 11.53515625 14.0703125 C11.20515625 14.7303125 10.87515625 15.3903125 10.53515625 16.0703125 C10.31047794 17.60700115 10.1271882 19.14999304 9.97265625 20.6953125 C9.88886719 21.51257813 9.80507813 22.32984375 9.71875 23.171875 C9.62787109 24.11160156 9.62787109 24.11160156 9.53515625 25.0703125 C6.48409275 26.08733367 4.29316564 26.23613333 1.09765625 26.2578125 C-0.32353516 26.27908203 -0.32353516 26.27908203 -1.7734375 26.30078125 C-4.50986019 26.06645768 -6.12912498 25.46732633 -8.46484375 24.0703125 C-8.46484375 23.4103125 -8.46484375 22.7503125 -8.46484375 22.0703125 C-9.12484375 22.0703125 -9.78484375 22.0703125 -10.46484375 22.0703125 C-13.20264477 18.70071125 -14.11492335 15.56115596 -13.94921875 11.203125 C-13.00295064 7.03649286 -10.49862226 3.98768704 -7.46484375 1.0703125 C-4.84225026 -0.09528461 -2.8364696 0.08091355 0 0 Z " fill="#9BBB5F" transform="translate(28.46484375,134.9296875)"/>
<path d="M0 0 C2.97922593 -0.02683987 5.95821295 -0.04676037 8.9375 -0.0625 C9.78763672 -0.07087891 10.63777344 -0.07925781 11.51367188 -0.08789062 C12.32255859 -0.09111328 13.13144531 -0.09433594 13.96484375 -0.09765625 C14.7137085 -0.10289307 15.46257324 -0.10812988 16.23413086 -0.11352539 C18 0 18 0 19 1 C19.04063832 2.66617115 19.042721 4.33388095 19 6 C18.01 5.34 17.02 4.68 16 4 C16 3.34 16 2.68 16 2 C13.69 2 11.38 2 9 2 C9 5.3 9 8.6 9 12 C13.47883696 11.55296014 13.47883696 11.55296014 17 9 C17 11.64 17 14.28 17 17 C16.34 16.34 15.68 15.68 15 15 C13.01178687 14.60235737 11.01055661 14.26224651 9 14 C9.33 16.97 9.66 19.94 10 23 C12.64 23 15.28 23 18 23 C18.33 21.68 18.66 20.36 19 19 C19.66 19 20.32 19 21 19 C20.67 21.31 20.34 23.62 20 26 C13.4 26 6.8 26 0 26 C0 25.34 0 24.68 0 24 C1.32 24 2.64 24 4 24 C4 16.74 4 9.48 4 2 C2.68 1.67 1.36 1.34 0 1 C0 0.67 0 0.34 0 0 Z " fill="#A9C37A" transform="translate(64,135)"/>
<path d="M0 0 C1.32 0 2.64 0 4 0 C4 0.66 4 1.32 4 2 C4.81267334 1.99476318 5.62534668 1.98952637 6.46264648 1.98413086 C10.12092322 1.96343006 13.77918767 1.95036197 17.4375 1.9375 C18.71689453 1.92912109 19.99628906 1.92074219 21.31445312 1.91210938 C23.13686523 1.90727539 23.13686523 1.90727539 24.99609375 1.90234375 C26.12200928 1.89710693 27.2479248 1.89187012 28.40795898 1.88647461 C31 2 31 2 32 3 C32.16860794 8.1425421 31.99327634 13.23920555 31.6875 18.375 C31.60048828 19.87160156 31.60048828 19.87160156 31.51171875 21.3984375 C30.93759428 24.31726877 30.43572064 25.32544206 28 27 C24.3125 27.1875 24.3125 27.1875 21 27 C21 23.7 21 20.4 21 17 C22.99954746 16.95745644 25.00041636 16.95919217 27 17 C27.33 17.33 27.66 17.66 28 18 C28 16.35 28 14.7 28 13 C27.67 13.33 27.34 13.66 27 14 C25.00041636 14.04080783 22.99954746 14.04254356 21 14 C21 11.03 21 8.06 21 5 C23.31 5 25.62 5 28 5 C28.33 6.32 28.66 7.64 29 9 C29.66 9 30.32 9 31 9 C30.67 7.35 30.34 5.7 30 4 C19.77 4 9.54 4 -1 4 C-0.67 2.68 -0.34 1.36 0 0 Z " fill="#F0F8E1" transform="translate(180,132)"/>
<path d="M0 0 C4.62 0 9.24 0 14 0 C13.01 0.495 13.01 0.495 12 1 C12.02320313 1.62648437 12.04640625 2.25296875 12.0703125 2.8984375 C12.09738281 4.12433594 12.09738281 4.12433594 12.125 5.375 C12.14820313 6.18710938 12.17140625 6.99921875 12.1953125 7.8359375 C12 10 12 10 10 12 C8.35 12 6.7 12 5 12 C5 15.63 5 19.26 5 23 C6.32 23 7.64 23 9 23 C9 23.66 9 24.32 9 25 C5.37 25 1.74 25 -2 25 C-2 24.34 -2 23.68 -2 23 C-1.01 23 -0.02 23 1 23 C0.67 15.41 0.34 7.82 0 0 Z " fill="#99B75F" transform="translate(142,136)"/>
<path d="M0 0 C5.28 0 10.56 0 16 0 C16 0.33 16 0.66 16 1 C12.37 1.33 8.74 1.66 5 2 C5 9.26 5 16.52 5 24 C4.01 24 3.02 24 2 24 C2 24.66 2 25.32 2 26 C-1.18824568 27.59412284 -4.62896662 27.10174735 -8.125 27.0625 C-8.87910156 27.05798828 -9.63320313 27.05347656 -10.41015625 27.04882812 C-12.27347127 27.03703499 -14.13674555 27.01909942 -16 27 C-16 26.67 -16 26.34 -16 26 C-11.38 25.67 -6.76 25.34 -2 25 C-2.020625 23.535625 -2.04125 22.07125 -2.0625 20.5625 C-2.08392007 19.04167482 -2.07179964 17.51928038 -2 16 C-1.67 15.67 -1.34 15.34 -1 15 C-2.98 15 -4.96 15 -7 15 C-6.67 15.33 -6.34 15.66 -6 16 C-5.85884839 18.67058851 -5.95752893 21.32432238 -6 24 C-8.64 24 -11.28 24 -14 24 C-14 23.67 -14 23.34 -14 23 C-12.02 23 -10.04 23 -8 23 C-8.66 21.68 -9.32 20.36 -10 19 C-9.34 19 -8.68 19 -8 19 C-8 18.34 -8 17.68 -8 17 C-8.99 17 -9.98 17 -11 17 C-12.125 13.25 -12.125 13.25 -11 11 C-10.01 11 -9.02 11 -8 11 C-8 11.66 -8 12.32 -8 13 C-4.37 13 -0.74 13 3 13 C3 9.7 3 6.4 3 3 C2.01 3 1.02 3 0 3 C0 2.01 0 1.02 0 0 Z " fill="#E8F1D5" transform="translate(40,135)"/>
<path d="M0 0 C5.94 0 11.88 0 18 0 C18 1.65 18 3.3 18 5 C17.649375 4.525625 17.29875 4.05125 16.9375 3.5625 C14.15836457 1.32126175 11.4855283 1.32882342 8 1 C8 4.3 8 7.6 8 11 C9.98 11 11.96 11 14 11 C14 10.01 14 9.02 14 8 C14.66 8 15.32 8 16 8 C16 10.31 16 12.62 16 15 C13.36 14.34 10.72 13.68 8 13 C8 16.3 8 19.6 8 23 C10.97 23 13.94 23 17 23 C17.33 22.01 17.66 21.02 18 20 C18.33 21.32 18.66 22.64 19 24 C13.72 24 8.44 24 3 24 C3 16.41 3 8.82 3 1 C2.01 0.67 1.02 0.34 0 0 Z " fill="#9CBD60" transform="translate(86,136)"/>
<path d="M0 0 C1.98 0 3.96 0 6 0 C6 5.28 6 10.56 6 16 C5.01 16 4.02 16 3 16 C3 14.35 3 12.7 3 11 C2.34 11 1.68 11 1 11 C0.67 12.65 0.34 14.3 0 16 C-2.97 16 -5.94 16 -9 16 C-9 12.7 -9 9.4 -9 6 C-7.02 6 -5.04 6 -3 6 C-3 6.99 -3 7.98 -3 9 C-2.01 9 -1.02 9 0 9 C0 6.03 0 3.06 0 0 Z " fill="#F1F9E5" transform="translate(103,143)"/>
<path d="M0 0 C0.99 0 1.98 0 3 0 C3 2.64 3 5.28 3 8 C3.66 8 4.32 8 5 8 C5.05449838 9.72880982 5.09301688 11.45812712 5.125 13.1875 C5.14820313 14.15042969 5.17140625 15.11335938 5.1953125 16.10546875 C4.9913544 19.12812778 4.26874632 21.26769985 3 24 C3.99 24.33 4.98 24.66 6 25 C6 27.31 6 29.62 6 32 C4.68 32 3.36 32 2 32 C2.33 34.64 2.66 37.28 3 40 C2.34 40 1.68 40 1 40 C1 39.34 1 38.68 1 38 C0.01 37.67 -0.98 37.34 -2 37 C-1.855625 36.31292969 -1.71125 35.62585938 -1.5625 34.91796875 C-1.376875 34.01691406 -1.19125 33.11585937 -1 32.1875 C-0.814375 31.29417969 -0.62875 30.40085937 -0.4375 29.48046875 C0.08684843 26.92739307 0.08684843 26.92739307 0 24 C0 16 0 8 0 0 Z " fill="#F1A535" transform="translate(140,56)"/>
<path d="M0 0 C10.85307346 0.1904048 10.85307346 0.1904048 15.1875 3.25 C16.99990688 5.99985871 17.82308169 7.72701131 18 11 C17.67 11.66 17.34 12.32 17 13 C8.01445534 13.4568921 8.01445534 13.4568921 4 10 C1.68649955 6.79144037 0 4.05788033 0 0 Z " fill="#9ABE5E" transform="translate(119,69)"/>
<path d="M0 0 C0.268125 0.598125 0.53625 1.19625 0.8125 1.8125 C2.57560036 5.06031645 4.03847596 6.61539038 7.5 8 C10.16495781 9.06598312 11.42873302 9.6017504 13 12 C13.5 15.4375 13.5 15.4375 13 19 C10.81644423 21.74705403 9.23435413 22.83187246 5.734375 23.30859375 C3.41493579 23.37219128 1.28907537 23.3867593 -1 23 C-3 21 -3 21 -3.125 17.875 C-3.08375 16.92625 -3.0425 15.9775 -3 15 C-2.67 15.66 -2.34 16.32 -2 17 C-1.34 17 -0.68 17 0 17 C0.33 17.99 0.66 18.98 1 20 C2.98 20 4.96 20 7 20 C6.9688059 17.13265479 6.9688059 17.13265479 6 14 C3.0929357 11.83973235 3.0929357 11.83973235 0 10 C-2.08007422 6.9744375 -2 5.85524891 -2 2 C-1.34 2 -0.68 2 0 2 C0 1.34 0 0.68 0 0 Z " fill="#99BB58" transform="translate(179,138)"/>
<path d="M0 0 C0.99 0 1.98 0 3 0 C3 7.26 3 14.52 3 22 C1.35 22 -0.3 22 -2 22 C-3.80078125 20.13671875 -3.80078125 20.13671875 -5.3125 17.6875 C-5.82425781 16.88699219 -6.33601562 16.08648437 -6.86328125 15.26171875 C-8 13 -8 13 -8 10 C-5.46815512 7.64276511 -4.52809907 7 -1 7 C-1 6.34 -1 5.68 -1 5 C-0.01 5 0.98 5 2 5 C2 4.34 2 3.68 2 3 C1.01 2.67 0.02 2.34 -1 2 C-0.67 1.34 -0.34 0.68 0 0 Z " fill="#F3F9E8" transform="translate(163,137)"/>
<path d="M0 0 C0.99 0.33 1.98 0.66 3 1 C3 1.66 3 2.32 3 3 C2.34 3 1.68 3 1 3 C1 8.94 1 14.88 1 21 C1.66 21 2.32 21 3 21 C3.04898438 20.36191406 3.09796875 19.72382813 3.1484375 19.06640625 C3.22320312 18.24011719 3.29796875 17.41382813 3.375 16.5625 C3.44460937 15.73878906 3.51421875 14.91507813 3.5859375 14.06640625 C3.72257813 13.38449219 3.85921875 12.70257813 4 12 C4.66 11.67 5.32 11.34 6 11 C6.33 10.34 6.66 9.68 7 9 C7.391875 9.433125 7.78375 9.86625 8.1875 10.3125 C9.98883092 12.14872517 9.98883092 12.14872517 12.625 13.3125 C15 15 15 15 15.875 18.125 C15.936875 19.548125 15.936875 19.548125 16 21 C15 22 15 22 11.9375 22.0625 C10.968125 22.041875 9.99875 22.02125 9 22 C8.67 20.68 8.34 19.36 8 18 C7.34 18 6.68 18 6 18 C6.33 19.98 6.66 21.96 7 24 C5.68 24 4.36 24 3 24 C3 23.34 3 22.68 3 22 C2.01 22 1.02 22 0 22 C0 14.74 0 7.48 0 0 Z " fill="#F4F9E9" transform="translate(171,137)"/>
<path d="M0 0 C0 0.33 0 0.66 0 1 C-0.61520508 0.99476318 -1.23041016 0.98952637 -1.86425781 0.98413086 C-4.65949476 0.96330629 -7.45471536 0.95032241 -10.25 0.9375 C-11.21808594 0.92912109 -12.18617187 0.92074219 -13.18359375 0.91210938 C-14.11816406 0.90888672 -15.05273438 0.90566406 -16.015625 0.90234375 C-17.30388184 0.89448853 -17.30388184 0.89448853 -18.61816406 0.88647461 C-20.88670744 0.99460014 -22.82631715 1.36417577 -25 2 C-25 2.66 -25 3.32 -25 4 C-25.66 4 -26.32 4 -27 4 C-27.33 4.99 -27.66 5.98 -28 7 C-28.66 7 -29.32 7 -30 7 C-30.33 7.66 -30.66 8.32 -31 9 C-31.66 9.268125 -32.32 9.53625 -33 9.8125 C-35.28474077 10.85955198 -35.28474077 10.85955198 -35.75 13.625 C-35.8325 14.40875 -35.915 15.1925 -36 16 C-36.66 16 -37.32 16 -38 16 C-38 22.6 -38 29.2 -38 36 C-42.04286666 30.60951112 -41.65117509 26.54514449 -41 20 C-40.23635139 17.12095697 -39.25426335 14.71757059 -38 12 C-37.34 12 -36.68 12 -36 12 C-35.5978125 10.8553125 -35.5978125 10.8553125 -35.1875 9.6875 C-34.04865495 7.11011382 -33.18583329 5.73045136 -31 4 C-30.34 4 -29.68 4 -29 4 C-29 3.34 -29 2.68 -29 2 C-19.48137708 -2.81302829 -10.08826518 -3.77554835 0 0 Z " fill="#F8EFCE" transform="translate(123,52)"/>
<path d="M0 0 C2.875 0.3125 2.875 0.3125 6 1 C6.66 1.99 7.32 2.98 8 4 C8.66 2.68 9.32 1.36 10 0 C11.65 0.33 13.3 0.66 15 1 C14.01 1.33 13.02 1.66 12 2 C12 2.66 12 3.32 12 4 C12.99 4.33 13.98 4.66 15 5 C14.67 6.32 14.34 7.64 14 9 C12.33388095 9.042721 10.66617115 9.04063832 9 9 C8.67 8.67 8.34 8.34 8 8 C7.34 8.66 6.68 9.32 6 10 C3.69 9.34 1.38 8.68 -1 8 C-1.625 5.6875 -1.625 5.6875 -2 3 C-1.34 2.01 -0.68 1.02 0 0 Z " fill="#EBEBEB" transform="translate(169,173)"/>
<path d="M0 0 C0.66 0 1.32 0 2 0 C2 7.26 2 14.52 2 22 C0.68 22 -0.64 22 -2 22 C-2 22.66 -2 23.32 -2 24 C-1.44014404 23.96970703 -0.88028809 23.93941406 -0.3034668 23.90820312 C2.23514498 23.77130816 4.77382091 23.63564062 7.3125 23.5 C8.19357422 23.45230469 9.07464844 23.40460938 9.98242188 23.35546875 C11.25375977 23.28779297 11.25375977 23.28779297 12.55078125 23.21875 C13.33106689 23.17685547 14.11135254 23.13496094 14.9152832 23.09179688 C16.60882396 23.01722476 18.30481821 23 20 23 C20 23.66 20 24.32 20 25 C17.05868109 25.98043964 15.17498335 26.11621202 12.11328125 26.09765625 C11.17548828 26.09443359 10.23769531 26.09121094 9.27148438 26.08789062 C8.29501953 26.07951172 7.31855469 26.07113281 6.3125 26.0625 C5.32443359 26.05798828 4.33636719 26.05347656 3.31835938 26.04882812 C0.87884526 26.03704303 -1.56054689 26.02059011 -4 26 C-3.34 26.33 -2.68 26.66 -2 27 C-2 27.66 -2 28.32 -2 29 C-4.64 29 -7.28 29 -10 29 C-9.01 28.67 -8.02 28.34 -7 28 C-7 27.34 -7 26.68 -7 26 C-9.97 25.67 -12.94 25.34 -16 25 C-16 24.67 -16 24.34 -16 24 C-15.40832031 23.97421875 -14.81664062 23.9484375 -14.20703125 23.921875 C-8.9279987 23.54295586 -5.89363339 22.89363339 -2 19 C0 20 0 20 1 21 C0.67 14.07 0.34 7.14 0 0 Z " fill="#F1F9DF" transform="translate(194,137)"/>
<path d="M0 0 C3.3 0.33 6.6 0.66 10 1 C10 2.32 10 3.64 10 5 C10.66 5 11.32 5 12 5 C12.66 3.68 13.32 2.36 14 1 C14.33 1.66 14.66 2.32 15 3 C14.06421005 5.35981813 13.06652192 7.69631264 12 10 C13.98 9.67 15.96 9.34 18 9 C15.60236815 11.39763185 14.66726502 11.34280586 11.375 11.625 C10.55773437 11.69976562 9.74046875 11.77453125 8.8984375 11.8515625 C8.27195313 11.90054688 7.64546875 11.94953125 7 12 C7 11.34 7 10.68 7 10 C5.68 10 4.36 10 3 10 C0.96564469 6.27034861 0 4.33094958 0 0 Z " fill="#C2D994" transform="translate(134,41)"/>
<path d="M0 0 C0.433125 0.61875 0.86625 1.2375 1.3125 1.875 C5.39152541 5.10027591 9.9373353 5.33661635 15 6 C15.33 5.34 15.66 4.68 16 4 C15.38580424 16.0933028 15.38580424 16.0933028 12 20 C11.01 20.33 10.02 20.66 9 21 C9.33 19.68 9.66 18.36 10 17 C10.66 17 11.32 17 12 17 C12 16.01 12 15.02 12 14 C11.195625 13.71125 10.39125 13.4225 9.5625 13.125 C7 12 7 12 6 10 C5.34 10 4.68 10 4 10 C4.33 8.68 4.66 7.36 5 6 C3.35 5.67 1.7 5.34 0 5 C-0.33 5.66 -0.66 6.32 -1 7 C-0.67 4.69 -0.34 2.38 0 0 Z " fill="#FAFDF5" transform="translate(121,76)"/>
<path d="M0 0 C2.48660455 0.3878678 3.72345219 0.70962479 5.484375 2.55859375 C5.90203125 3.17863281 6.3196875 3.79867187 6.75 4.4375 C7.17796875 5.05496094 7.6059375 5.67242187 8.046875 6.30859375 C9 8 9 8 9 10 C21.87 10.495 21.87 10.495 35 11 C35 11.33 35 11.66 35 12 C21.14 12 7.28 12 -7 12 C-7 11.67 -7 11.34 -7 11 C-3.37 11 0.26 11 4 11 C4 10.34 4 9.68 4 9 C2.68 8.67 1.36 8.34 0 8 C0 5.36 0 2.72 0 0 Z " fill="#F0F9E0" transform="translate(49,150)"/>
<path d="M0 0 C2.31 0 4.62 0 7 0 C6.01 0.495 6.01 0.495 5 1 C5.15339844 1.65355469 5.30679688 2.30710938 5.46484375 2.98046875 C6.13379594 6.75492159 6.35407297 10.48905996 6.5625 14.3125 C6.60568359 15.05306641 6.64886719 15.79363281 6.69335938 16.55664062 C6.79870432 18.37091464 6.89978316 20.1854355 7 22 C7.99 22.33 8.98 22.66 10 23 C10 23.66 10 24.32 10 25 C0.1 25 -9.8 25 -20 25 C-20 24.34 -20 23.68 -20 23 C-13.73 23.33 -7.46 23.66 -1 24 C-1.33 22.02 -1.66 20.04 -2 18 C-1.34 18 -0.68 18 0 18 C0 19.65 0 21.3 0 23 C0.99 23 1.98 23 3 23 C3.33 16.07 3.66 9.14 4 2 C2.68 1.34 1.36 0.68 0 0 Z " fill="#AAC17C" transform="translate(106,136)"/>
<path d="M0 0 C2.05078125 0.03255208 4.1015625 0.06510417 6.15234375 0.09765625 C6.20650563 1.70144966 6.24521013 3.30577031 6.27734375 4.91015625 C6.30054687 5.80347656 6.32375 6.69679687 6.34765625 7.6171875 C6.15234375 10.09765625 6.15234375 10.09765625 4.15234375 13.09765625 C1.21484375 12.72265625 1.21484375 12.72265625 -1.84765625 12.09765625 C-2.17765625 11.43765625 -2.50765625 10.77765625 -2.84765625 10.09765625 C0.12234375 10.59265625 0.12234375 10.59265625 3.15234375 11.09765625 C3.15234375 10.43765625 3.15234375 9.77765625 3.15234375 9.09765625 C1.97671875 9.19046875 1.97671875 9.19046875 0.77734375 9.28515625 C-0.52203125 9.19234375 -0.52203125 9.19234375 -1.84765625 9.09765625 C-3.84765625 6.09765625 -3.84765625 6.09765625 -3.53515625 3.47265625 C-2.56922244 0.135794 -2.56922244 0.135794 0 0 Z " fill="#AEAEAE" transform="translate(63.84765625,172.90234375)"/>
<path d="M0 0 C0.66 0.33 1.32 0.66 2 1 C1.67 1.66 1.34 2.32 1 3 C0.88129508 5.05767438 0.82089368 7.1188378 0.7890625 9.1796875 C0.74652344 11.03787109 0.74652344 11.03787109 0.703125 12.93359375 C0.65119931 15.55324487 0.60688154 18.17305826 0.5703125 20.79296875 C0.52390625 22.65501953 0.52390625 22.65501953 0.4765625 24.5546875 C0.45674316 25.69405762 0.43692383 26.83342773 0.41650391 28.00732422 C-0.03313952 31.23811503 -0.81848084 32.63010655 -3 35 C-2.98839844 34.25234375 -2.97679687 33.5046875 -2.96484375 32.734375 C-2.95582031 31.74953125 -2.94679687 30.7646875 -2.9375 29.75 C-2.92589844 28.77546875 -2.91429687 27.8009375 -2.90234375 26.796875 C-3.00381114 23.2972772 -3.00381114 23.2972772 -4 20 C-7.04996797 17.83144479 -10.08317783 17.63691587 -13.75 17.375 C-14.73484375 17.30023438 -15.7196875 17.22546875 -16.734375 17.1484375 C-17.48203125 17.09945312 -18.2296875 17.05046875 -19 17 C-19 16.67 -19 16.34 -19 16 C-12.565 15.505 -12.565 15.505 -6 15 C-5.67 15.99 -5.34 16.98 -5 18 C-4.01 18.33 -3.02 18.66 -2 19 C-2.02320313 18.13117188 -2.04640625 17.26234375 -2.0703125 16.3671875 C-2.08835938 15.21476562 -2.10640625 14.06234375 -2.125 12.875 C-2.14820313 11.73804687 -2.17140625 10.60109375 -2.1953125 9.4296875 C-1.99672109 5.94242233 -1.2524801 3.2446138 0 0 Z " fill="#F3EDC6" transform="translate(139,53)"/>
<path d="M0 0 C1.32 0.33 2.64 0.66 4 1 C3.67 4.96 3.34 8.92 3 13 C2.34 13 1.68 13 1 13 C0.67 11.35 0.34 9.7 0 8 C-0.99 8 -1.98 8 -3 8 C-3.33 9.65 -3.66 11.3 -4 13 C-5.32 13 -6.64 13 -8 13 C-8 12.34 -8 11.68 -8 11 C-7.34 10.67 -6.68 10.34 -6 10 C-6.66 9.34 -7.32 8.68 -8 8 C-7.625 5.875 -7.625 5.875 -7 4 C-5.68 4 -4.36 4 -3 4 C-2.67 3.34 -2.34 2.68 -2 2 C-1.34 1.34 -0.68 0.68 0 0 Z " fill="#F6F6F4" transform="translate(146,169)"/>
<path d="M0 0 C0.33 0 0.66 0 1 0 C1.02505615 0.69561035 1.0501123 1.3912207 1.07592773 2.10791016 C1.19245974 5.28043455 1.31492568 8.45270355 1.4375 11.625 C1.47681641 12.71941406 1.51613281 13.81382813 1.55664062 14.94140625 C1.61948242 16.53662109 1.61948242 16.53662109 1.68359375 18.1640625 C1.72025146 19.13811035 1.75690918 20.1121582 1.79467773 21.11572266 C2.00893288 24.1254852 2.45931357 27.03295916 3 30 C2.34 29.67 1.68 29.34 1 29 C0.9175 30.258125 0.835 31.51625 0.75 32.8125 C0.27894347 36.74720748 0.27894347 36.74720748 -2 38.8125 C-2.99 39.4003125 -2.99 39.4003125 -4 40 C-4.33 40.99 -4.66 41.98 -5 43 C-7.97 43.495 -7.97 43.495 -11 44 C-10.01 43.505 -10.01 43.505 -9 43 C-8.67 42.01 -8.34 41.02 -8 40 C-7.34 40 -6.68 40 -6 40 C-5.731875 39.319375 -5.46375 38.63875 -5.1875 37.9375 C-4 35 -4 35 -2.46875 32.21875 C0.0461697 26.36496474 -0.4231173 19.82343899 -0.3125 13.5625 C-0.27833984 12.25861328 -0.24417969 10.95472656 -0.20898438 9.61132812 C-0.12683847 6.40763802 -0.0575759 3.20421021 0 0 Z " fill="#DEA341" transform="translate(139,56)"/>
<path d="M0 0 C0.99 0 1.98 0 3 0 C3 7.26 3 14.52 3 22 C-2 22 -2 22 -3.80078125 20.390625 C-4.54908203 19.33101562 -4.54908203 19.33101562 -5.3125 18.25 C-5.82425781 17.55390625 -6.33601563 16.8578125 -6.86328125 16.140625 C-8 14 -8 14 -8 10 C-6.68 9.67 -5.36 9.34 -4 9 C-4 7.02 -4 5.04 -4 3 C-3.67 3 -3.34 3 -3 3 C-2.67 4.98 -2.34 6.96 -2 9 C-2.99 9.66 -3.98 10.32 -5 11 C-5.33 11.99 -5.66 12.98 -6 14 C-4.576875 14.185625 -4.576875 14.185625 -3.125 14.375 C0 15 0 15 2 17 C2 11.72 2 6.44 2 1 C1.34 0.67 0.68 0.34 0 0 Z " fill="#EFF8DE" transform="translate(65,137)"/>
<path d="M0 0 C2.4375 0.375 2.4375 0.375 5 1 C6.32229189 3.64458379 6.09677194 5.67761301 6.0625 8.625 C6.05347656 9.62789062 6.04445312 10.63078125 6.03515625 11.6640625 C6.02355469 12.43492188 6.01195312 13.20578125 6 14 C3 14 3 14 1.3125 12.625 C0 11 0 11 0 9 C-0.928125 8.7834375 -0.928125 8.7834375 -1.875 8.5625 C-4 8 -4 8 -6 7 C-6 6.34 -6 5.68 -6 5 C-6.99 4.67 -7.98 4.34 -9 4 C-6.03 4.33 -3.06 4.66 0 5 C0 3.35 0 1.7 0 0 Z " fill="#E4A947" transform="translate(129,47)"/>
<path d="M0 0 C0.66 0 1.32 0 2 0 C2 4.29 2 8.58 2 13 C-4.15234375 13.09765625 -4.15234375 13.09765625 -6 13 C-7 12 -7 12 -7.1875 9.0625 C-7 6 -7 6 -5 4 C-2.375 4.375 -2.375 4.375 0 5 C0 3.35 0 1.7 0 0 Z " fill="#A0A0A0" transform="translate(122,169)"/>
<path d="M0 0 C2.31 0 4.62 0 7 0 C6.96970703 0.58491211 6.93941406 1.16982422 6.90820312 1.77246094 C6.77108038 4.43158743 6.6355244 7.09079158 6.5 9.75 C6.45230469 10.67039063 6.40460937 11.59078125 6.35546875 12.5390625 C6.31035156 13.42851562 6.26523437 14.31796875 6.21875 15.234375 C6.17685547 16.05131836 6.13496094 16.86826172 6.09179688 17.70996094 C6.00780937 19.80518124 6 21.90309704 6 24 C4.02 24 2.04 24 0 24 C0.99 23.67 1.98 23.34 3 23 C3 15.74 3 8.48 3 1 C2.01 0.67 1.02 0.34 0 0 Z " fill="#91B94E" transform="translate(42,136)"/>
<path d="M0 0 C1.9480957 0.00483398 1.9480957 0.00483398 3.93554688 0.00976562 C5.30729233 0.01812094 6.67903712 0.02658588 8.05078125 0.03515625 C9.4342432 0.0401729 10.81770688 0.04473552 12.20117188 0.04882812 C15.5885852 0.06063096 18.97591158 0.07709606 22.36328125 0.09765625 C22.36328125 0.42765625 22.36328125 0.75765625 22.36328125 1.09765625 C16.42328125 1.42765625 10.48328125 1.75765625 4.36328125 2.09765625 C4.03328125 3.74765625 3.70328125 5.39765625 3.36328125 7.09765625 C2.70328125 7.09765625 2.04328125 7.09765625 1.36328125 7.09765625 C0.70328125 5.77765625 0.04328125 4.45765625 -0.63671875 3.09765625 C-2.28671875 3.09765625 -3.93671875 3.09765625 -5.63671875 3.09765625 C-6.29671875 4.41765625 -6.95671875 5.73765625 -7.63671875 7.09765625 C-7.96671875 6.43765625 -8.29671875 5.77765625 -8.63671875 5.09765625 C-9.29671875 5.09765625 -9.95671875 5.09765625 -10.63671875 5.09765625 C-10.30671875 7.07765625 -9.97671875 9.05765625 -9.63671875 11.09765625 C-10.29671875 11.09765625 -10.95671875 11.09765625 -11.63671875 11.09765625 C-11.88671875 4.47265625 -11.88671875 4.47265625 -9.63671875 1.09765625 C-6.21920222 -0.04151593 -3.60183938 -0.01572856 0 0 Z " fill="#B9CE90" transform="translate(187.63671875,134.90234375)"/>
<path d="M0 0 C1.32 0.66 2.64 1.32 4 2 C4 7.94 4 13.88 4 20 C3.34 18.68 2.68 17.36 2 16 C1.01 16 0.02 16 -1 16 C-1.02725341 14.2709226 -1.04650987 12.54171824 -1.0625 10.8125 C-1.07410156 9.84957031 -1.08570312 8.88664063 -1.09765625 7.89453125 C-1.00486622 5.14423487 -0.62111685 2.67520409 0 0 Z " fill="#F9FCF5" transform="translate(84,136)"/>
<path d="M0 0 C1.98 0 3.96 0 6 0 C6.33 0.99 6.66 1.98 7 3 C7.66 3 8.32 3 9 3 C9.042721 4.66611905 9.04063832 6.33382885 9 8 C8 9 8 9 6.15234375 9.09765625 C4.1015625 9.06510417 2.05078125 9.03255208 0 9 C0 6.03 0 3.06 0 0 Z " fill="#F5FBE8" transform="translate(73,149)"/>
<path d="M0 0 C0.99 0 1.98 0 3 0 C3 7.26 3 14.52 3 22 C2.01 22 1.02 22 0 22 C0 22.66 0 23.32 0 24 C-0.66 24 -1.32 24 -2 24 C-1.67 21.69 -1.34 19.38 -1 17 C-1.66 17 -2.32 17 -3 17 C-3.33 18.65 -3.66 20.3 -4 22 C-6.64 22 -9.28 22 -12 22 C-12 21.67 -12 21.34 -12 21 C-8.535 20.505 -8.535 20.505 -5 20 C-5 15.71 -5 11.42 -5 7 C-4.67 7 -4.34 7 -4 7 C-3.67 9.64 -3.34 12.28 -3 15 C-2.01 15 -1.02 15 0 15 C0.33 15.66 0.66 16.32 1 17 C1.33 11.72 1.66 6.44 2 1 C1.34 0.67 0.68 0.34 0 0 Z " fill="#E4F2CB" transform="translate(86,137)"/>
<path d="M0 0 C3.3 0 6.6 0 10 0 C10 0.33 10 0.66 10 1 C8.35 1.33 6.7 1.66 5 2 C5.33 2.33 5.66 2.66 6 3 C6.07271741 5.35313555 6.08370868 7.70833668 6.0625 10.0625 C6.05347656 11.35285156 6.04445312 12.64320313 6.03515625 13.97265625 C6.02355469 14.97167969 6.01195312 15.97070312 6 17 C1.86281109 15.20953589 0.33679861 12.83902629 -2 9 C-0.35 9 1.3 9 3 9 C2.67 8.34 2.34 7.68 2 7 C2.66 7 3.32 7 4 7 C3.67 5.68 3.34 4.36 3 3 C2.01 3 1.02 3 0 3 C0 2.01 0 1.02 0 0 Z " fill="#E6EFD0" transform="translate(122,135)"/>
<path d="M0 0 C1.98 0 3.96 0 6 0 C7.52150158 3.04300316 7.23899393 5.654085 7 9 C4 11 4 11 0 11 C0 7.37 0 3.74 0 0 Z " fill="#E7F4D2" transform="translate(49,137)"/>
<path d="M0 0 C1.65 0 3.3 0 5 0 C7 2 7 2 7.25 5.5 C7 9 7 9 5 11 C3.35 11 1.7 11 0 11 C0 7.37 0 3.74 0 0 Z " fill="#EDF6DC" transform="translate(147,137)"/>
<path d="M0 0 C0.66 0 1.32 0 2 0 C2.83790789 1.78953185 3.67019396 3.58169695 4.5 5.375 C4.9640625 6.37273437 5.428125 7.37046875 5.90625 8.3984375 C7 11 7 11 7 13 C6.01 12.67 5.02 12.34 4 12 C4 11.34 4 10.68 4 10 C1.69 10 -0.62 10 -3 10 C-3 10.99 -3 11.98 -3 13 C-3.66 13 -4.32 13 -5 13 C-4.54803755 11.39402675 -4.08817673 9.79027492 -3.625 8.1875 C-3.36976562 7.29417969 -3.11453125 6.40085938 -2.8515625 5.48046875 C-2 3 -2 3 0 0 Z " fill="#A7A7A7" transform="translate(51,169)"/>
<path d="M0 0 C-0.64822749 3.50042844 -1.80743153 6.1809834 -4 9 C-6.625 9.375 -6.625 9.375 -9 9 C-10 8 -10 8 -10.0625 4.9375 C-10.041875 3.968125 -10.02125 2.99875 -10 2 C-6.5980513 -0.09350689 -3.94727588 -0.17942163 0 0 Z " fill="#9ABC5E" transform="translate(176,125)"/>
<path d="M0 0 C3.29714793 0.32971479 4.6226839 0.6226839 7 3 C6.44444444 7.55555556 6.44444444 7.55555556 5 9 C2.5625 9.1875 2.5625 9.1875 0 9 C-2 7 -2 7 -2.25 4.5 C-2 2 -2 2 0 0 Z " fill="#A3A3A3" transform="translate(83,173)"/>
<path d="M0 0 C0.66 0.33 1.32 0.66 2 1 C1.67 2.32 1.34 3.64 1 5 C0.26523438 4.9484375 -0.46953125 4.896875 -1.2265625 4.84375 C-4.39582468 5.02229998 -5.71986074 5.82306994 -8.375 7.5 C-15.00699046 11.06720699 -21.69127836 10.4385233 -29 10 C-29.33 9.34 -29.66 8.68 -30 8 C-28.94941406 7.97421875 -27.89882812 7.9484375 -26.81640625 7.921875 C-17.20696497 7.57618694 -10.34597732 6.29858175 -2.0625 1.1875 C-1.381875 0.795625 -0.70125 0.40375 0 0 Z M-3 6 C-1 7 -1 7 -1 7 Z " fill="#F9F4DC" transform="translate(134,112)"/>
<path d="M0 0 C0.33 0 0.66 0 1 0 C1 7.26 1 14.52 1 22 C0.01 22 -0.98 22 -2 22 C-2 22.66 -2 23.32 -2 24 C-5.18824568 25.59412284 -8.62896662 25.10174735 -12.125 25.0625 C-12.87910156 25.05798828 -13.63320313 25.05347656 -14.41015625 25.04882812 C-16.27347127 25.03703499 -18.13674555 25.01909942 -20 25 C-20 24.67 -20 24.34 -20 24 C-15.38 23.67 -10.76 23.34 -6 23 C-6 20.03 -6 17.06 -6 14 C-5.67 14 -5.34 14 -5 14 C-4.67 15.98 -4.34 17.96 -4 20 C-3.01 20.33 -2.02 20.66 -1 21 C-0.67 14.07 -0.34 7.14 0 0 Z " fill="#DFEFC2" transform="translate(44,137)"/>
<path d="M0 0 C2.97 0 5.94 0 9 0 C8.01 0.33 7.02 0.66 6 1 C6 8.92 6 16.84 6 25 C4.68 24.34 3.36 23.68 2 23 C2.66 22.67 3.32 22.34 4 22 C3.83242187 21.15953125 3.66484375 20.3190625 3.4921875 19.453125 C2.80384552 14.62380504 3.08336127 9.91098566 3.2578125 5.046875 C3.17273438 4.04140625 3.08765625 3.0359375 3 2 C2.01 1.34 1.02 0.68 0 0 Z " fill="#A2BD6E" transform="translate(124,136)"/>
<path d="M0 0 C4.59015637 0.60624707 8.61677644 1.53892548 13 3 C13 3.99 13 4.98 13 6 C11.35 6 9.7 6 8 6 C7.67 6.99 7.34 7.98 7 9 C5.68 9 4.36 9 3 9 C3 8.01 3 7.02 3 6 C3.66 5.67 4.32 5.34 5 5 C3.02 5.33 1.04 5.66 -1 6 C-1.33 5.34 -1.66 4.68 -2 4 C-1.0625 1.875 -1.0625 1.875 0 0 Z " fill="#F0A332" transform="translate(85,46)"/>
<path d="M0 0 C0.66 0 1.32 0 2 0 C10.38922652 14.82624309 10.38922652 14.82624309 10 23 C9.67 22.01 9.34 21.02 9 20 C8.01 20 7.02 20 6 20 C5.46165624 17.9235312 4.9720289 15.85614862 4.5625 13.75 C3.82301354 10.13473286 2.90924266 6.57635445 2 3 C0.68 3.33 -0.64 3.66 -2 4 C-1.34 2.68 -0.68 1.36 0 0 Z " fill="#E4A642" transform="translate(142,52)"/>
<path d="M0 0 C1.98 0 3.96 0 6 0 C6 5.28 6 10.56 6 16 C5.01 16 4.02 16 3 16 C2.86722656 15.18015625 2.73445313 14.3603125 2.59765625 13.515625 C2.42105469 12.43796875 2.24445313 11.3603125 2.0625 10.25 C1.88847656 9.18265625 1.71445313 8.1153125 1.53515625 7.015625 C1.11295829 4.63652407 0.62797116 2.33084789 0 0 Z " fill="#F5FBE8" transform="translate(103,143)"/>
<path d="M0 0 C4.95 0 9.9 0 15 0 C15.125 8.75 15.125 8.75 14 11 C12.68 11 11.36 11 10 11 C10 10.01 10 9.02 10 8 C9.34 7.67 8.68 7.34 8 7 C8 6.01 8 5.02 8 4 C6.02 4 4.04 4 2 4 C2 3.67 2 3.34 2 3 C7.37305699 2.64766839 7.37305699 2.64766839 10 3 C12 5 12 5 13 7 C13.33 5.35 13.66 3.7 14 2 C9.38 2 4.76 2 0 2 C0 1.34 0 0.68 0 0 Z " fill="#ECF6D7" transform="translate(24,134)"/>
<path d="M0 0 C2.31 0 4.62 0 7 0 C7.07427838 3.34252724 7.06546953 5.8035914 6 9 C4.02 9 2.04 9 0 9 C0 6.03 0 3.06 0 0 Z " fill="#F4FAEA" transform="translate(201,137)"/>
<path d="M0 0 C1.01085428 3.34386398 1.11543463 6.3748118 1.09765625 9.859375 C1.09443359 10.97441406 1.09121094 12.08945313 1.08789062 13.23828125 C1.07951172 14.39714844 1.07113281 15.55601563 1.0625 16.75 C1.05798828 17.92433594 1.05347656 19.09867188 1.04882812 20.30859375 C1.03705094 23.20578072 1.02060326 26.10286454 1 29 C1.99 29.33 2.98 29.66 4 30 C4 31.65 4 33.3 4 35 C-0.99791949 30.71606901 -1.77150011 23.95318797 -2.2578125 17.66796875 C-2.35942199 11.43350097 -1.86652162 5.94953766 0 0 Z " fill="#DEAD50" transform="translate(71,64)"/>
<path d="M0 0 C0 1.98 0 3.96 0 6 C-0.495 5.34 -0.99 4.68 -1.5 4 C-5.18823674 1.04941061 -7.34507137 1.48278571 -12 2 C-13.92005135 3.25117962 -13.92005135 3.25117962 -15 5 C-15.66 5.66 -16.32 6.32 -17 7 C-17 6.01 -17 5.02 -17 4 C-17.66 3.67 -18.32 3.34 -19 3 C-17 0 -17 0 -15 -0.6875 C-3.72413793 -1.86206897 -3.72413793 -1.86206897 0 0 Z " fill="#A4BE73" transform="translate(38,136)"/>
<path d="M0 0 C0.99 0 1.98 0 3 0 C3 0.66 3 1.32 3 2 C5.97 2 8.94 2 12 2 C12 2.99 12 3.98 12 5 C11.34 4.67 10.68 4.34 10 4 C8.00039988 3.960008 5.99952758 3.95653201 4 4 C4.33 4.33 4.66 4.66 5 5 C5.14115161 7.67058851 5.04247107 10.32432238 5 13 C2.36 13 -0.28 13 -3 13 C-3 12.67 -3 12.34 -3 12 C-1.02 12 0.96 12 3 12 C2.34 10.68 1.68 9.36 1 8 C1.66 8 2.32 8 3 8 C3 7.34 3 6.68 3 6 C2.01 6 1.02 6 0 6 C-1.125 2.25 -1.125 2.25 0 0 Z " fill="#E5EECD" transform="translate(29,146)"/>
<path d="M0 0 C0.33 0 0.66 0 1 0 C1 1.98 1 3.96 1 6 C3.31 5.34 5.62 4.68 8 4 C7.6875 5.9375 7.6875 5.9375 7 8 C4 9 4 9 1 8 C1.33 10.64 1.66 13.28 2 16 C2.99 16.33 3.98 16.66 5 17 C5 17.66 5 18.32 5 19 C1.37 19 -2.26 19 -6 19 C-6 18.67 -6 18.34 -6 18 C-4.02 18 -2.04 18 0 18 C0 17.34 0 16.68 0 16 C-0.66 15.67 -1.32 15.34 -2 15 C-1.67 14.67 -1.34 14.34 -1 14 C-0.76472227 11.65012738 -0.58613583 9.29443961 -0.4375 6.9375 C-0.35371094 5.64714844 -0.26992188 4.35679687 -0.18359375 3.02734375 C-0.12300781 2.02832031 -0.06242187 1.02929688 0 0 Z " fill="#A4BF6E" transform="translate(48,142)"/>
<path d="M0 0 C0 0.66 0 1.32 0 2 C-5.36052256 7.20286013 -10.6954941 7.13576026 -17.875 7.0625 C-19.02742188 7.05347656 -20.17984375 7.04445313 -21.3671875 7.03515625 C-22.23601562 7.02355469 -23.10484375 7.01195313 -24 7 C-24 6.34 -24 5.68 -24 5 C-23.16597656 4.97421875 -22.33195312 4.9484375 -21.47265625 4.921875 C-14.87196209 4.58919397 -9.59786179 3.91094464 -3.70703125 0.83984375 C-2 0 -2 0 0 0 Z " fill="#E0AD56" transform="translate(128,101)"/>
<path d="M0 0 C1.65 0 3.3 0 5 0 C5 0.99 5 1.98 5 3 C5.99 3 6.98 3 8 3 C8 7.62 8 12.24 8 17 C6.34717337 14.52076006 5.18219393 12.33111579 4 9.625 C3.65453125 8.83480469 3.3090625 8.04460938 2.953125 7.23046875 C1.92950723 4.83503536 0.94040278 2.42937385 0 0 Z " fill="#F8F4DB" transform="translate(144,52)"/>
<path d="M0 0 C2.00720923 0.28674418 4.0085944 0.61866701 6 1 C6.33 2.32 6.66 3.64 7 5 C4.69 5 2.38 5 0 5 C0 5.66 0 6.32 0 7 C1.98 7 3.96 7 6 7 C5.67 7.66 5.34 8.32 5 9 C2.625 9.125 2.625 9.125 0 9 C-0.66 8.34 -1.32 7.68 -2 7 C-1.43181818 1.43181818 -1.43181818 1.43181818 0 0 Z " fill="#AAAAAA" transform="translate(169,173)"/>
<path d="M0 0 C1.32 0 2.64 0 4 0 C7.22265625 5.2734375 7.22265625 5.2734375 8 7 C7.67 7.66 7.34 8.32 7 9 C6.34 8.67 5.68 8.34 5 8 C4.67 8.99 4.34 9.98 4 11 C4 10.34 4 9.68 4 9 C2.68 9 1.36 9 0 9 C0 6.03 0 3.06 0 0 Z " fill="#E8F3D4" transform="translate(147,150)"/>
<path d="M0 0 C2.04773383 1.84296045 3.40492465 3.61391801 4.9375 5.9375 C6.77057055 8.65933204 8.60625174 10.77723376 11 13 C8.69 13 6.38 13 4 13 C4.33 11.68 4.66 10.36 5 9 C4.34 9 3.68 9 3 9 C3 9.66 3 10.32 3 11 C2.01 11 1.02 11 0 11 C-0.93423645 7.98968256 -1.04449911 7.13349732 0 4 C0 2.68 0 1.36 0 0 Z " fill="#F9F5E0" transform="translate(74,99)"/>
<path d="M0 0 C0.99 0.33 1.98 0.66 3 1 C3 1.66 3 2.32 3 3 C2.34 3 1.68 3 1 3 C1 8.94 1 14.88 1 21 C1.66 21 2.32 21 3 21 C3.33 19.02 3.66 17.04 4 15 C4.99 15 5.98 15 7 15 C6.814375 16.11375 6.62875 17.2275 6.4375 18.375 C5.68319343 21.82568861 5.68319343 21.82568861 7 24 C5.68 24 4.36 24 3 24 C3 23.34 3 22.68 3 22 C2.01 22 1.02 22 0 22 C0 14.74 0 7.48 0 0 Z " fill="#EAF6D5" transform="translate(171,137)"/>
<path d="M0 0 C3.3 0 6.6 0 10 0 C9.67 0.66 9.34 1.32 9 2 C8.77532169 3.53668865 8.59203195 5.07968054 8.4375 6.625 C8.35371094 7.44226563 8.26992188 8.25953125 8.18359375 9.1015625 C8.12300781 9.72804687 8.06242187 10.35453125 8 11 C6.68 11 5.36 11 4 11 C3.96261719 10.37351563 3.92523438 9.74703125 3.88671875 9.1015625 C3.82097656 8.28429687 3.75523438 7.46703125 3.6875 6.625 C3.62949219 5.81289062 3.57148437 5.00078125 3.51171875 4.1640625 C3.17009472 1.62078662 3.17009472 1.62078662 0 0 Z " fill="#93B654" transform="translate(30,149)"/>
<path d="M0 0 C1.65 0.33 3.3 0.66 5 1 C5 1.66 5 2.32 5 3 C11.27 3 17.54 3 24 3 C24 3.33 24 3.66 24 4 C17.73 4.33 11.46 4.66 5 5 C4.34 6.32 3.68 7.64 3 9 C2.67 7.35 2.34 5.7 2 4 C-2.95 3.67 -7.9 3.34 -13 3 C-13 2.67 -13 2.34 -13 2 C-6.565 1.505 -6.565 1.505 0 1 C0 0.67 0 0.34 0 0 Z " fill="#E2EDCA" transform="translate(80,132)"/>
<path d="M0 0 C1.32 0.33 2.64 0.66 4 1 C4 1.99 4 2.98 4 4 C6.64 4 9.28 4 12 4 C11.67 4.99 11.34 5.98 11 7 C11.66 7.33 12.32 7.66 13 8 C12.67 8.66 12.34 9.32 12 10 C12.66 10 13.32 10 14 10 C14 10.66 14 11.32 14 12 C7.34921606 10.83611281 3.92882777 6.09551013 0 1 C0 0.67 0 0.34 0 0 Z " fill="#F8F5DF" transform="translate(86,92)"/>
<path d="M0 0 C0.66 0 1.32 0 2 0 C2.33 0.66 2.66 1.32 3 2 C5.91652174 2.16681109 5.91652174 2.16681109 9 2 C9.66 1.34 10.32 0.68 11 0 C11 2.64 11 5.28 11 8 C10.34 7.34 9.68 6.68 9 6 C6.67724823 5.59952556 4.34260643 5.2602896 2 5 C2 7.31 2 9.62 2 12 C1.34 12 0.68 12 0 12 C0 8.04 0 4.08 0 0 Z " fill="#90BE42" transform="translate(70,144)"/>
<path d="M0 0 C3.375 0.25 3.375 0.25 7 1 C8.5 2.8125 8.5 2.8125 9 5 C8.67 6.32 8.34 7.64 8 9 C5.36 7.68 2.72 6.36 0 5 C0 3.35 0 1.7 0 0 Z " fill="#94BB4E" transform="translate(128,72)"/>
<path d="M0 0 C2.92879371 0.62759865 5.36095629 1.58622659 8 3 C7.67 4.98 7.34 6.96 7 9 C4.625 8.75 4.625 8.75 2 8 C-0.09862498 5.10189884 0 3.71621139 0 0 Z " fill="#90B951" transform="translate(134,41)"/>
<path d="M0 0 C0.66 0 1.32 0 2 0 C2.125 2.375 2.125 2.375 2 5 C0 7 0 7 -1.97119141 7.22705078 C-2.75671387 7.21657715 -3.54223633 7.20610352 -4.3515625 7.1953125 C-5.62773437 7.18564453 -5.62773437 7.18564453 -6.9296875 7.17578125 C-8.26386719 7.15064453 -8.26386719 7.15064453 -9.625 7.125 C-10.97078125 7.11146484 -10.97078125 7.11146484 -12.34375 7.09765625 C-14.56276586 7.0740497 -16.78125077 7.0411231 -19 7 C-19 6.34 -19 5.68 -19 5 C-18.43152344 5.01160156 -17.86304688 5.02320313 -17.27734375 5.03515625 C-12.43752361 5.09171508 -7.73163029 5.13559127 -3 4 C-1.17662247 2.0431712 -1.17662247 2.0431712 0 0 Z " fill="#AEC383" transform="translate(211,154)"/>
<path d="M0 0 C0.433125 0.61875 0.86625 1.2375 1.3125 1.875 C5.39152541 5.10027591 9.9373353 5.33661635 15 6 C15 6.66 15 7.32 15 8 C14.05125 8.12375 13.1025 8.2475 12.125 8.375 C8.91332809 8.71687177 8.91332809 8.71687177 7 11 C6.01 10.67 5.02 10.34 4 10 C4.33 8.68 4.66 7.36 5 6 C3.35 5.67 1.7 5.34 0 5 C-0.33 5.66 -0.66 6.32 -1 7 C-0.67 4.69 -0.34 2.38 0 0 Z " fill="#E7F1D4" transform="translate(121,76)"/>
<path d="M0 0 C1.32 0 2.64 0 4 0 C4.33 1.98 4.66 3.96 5 6 C3.35 6.66 1.7 7.32 0 8 C0 7.34 0 6.68 0 6 C-8.58 6 -17.16 6 -26 6 C-26 5.67 -26 5.34 -26 5 C-16.1 5 -6.2 5 4 5 C4 4.34 4 3.68 4 3 C2.68 2.67 1.36 2.34 0 2 C0 1.34 0 0.68 0 0 Z " fill="#F2FADE" transform="translate(112,156)"/>
<path d="M0 0 C0.99 0.33 1.98 0.66 3 1 C3 6.61 3 12.22 3 18 C1 17 1 17 -0.25 13.875 C-1.09711193 9.49825504 -0.36458572 7.17402692 1 3 C0.67 2.01 0.34 1.02 0 0 Z " fill="#F9FCF1" transform="translate(192,140)"/>
<path d="M0 0 C3.12482562 -0.08687496 6.24934246 -0.14034568 9.375 -0.1875 C10.70917969 -0.22520508 10.70917969 -0.22520508 12.0703125 -0.26367188 C13.34648437 -0.27817383 13.34648437 -0.27817383 14.6484375 -0.29296875 C15.82672119 -0.31653442 15.82672119 -0.31653442 17.02880859 -0.34057617 C17.67930176 -0.22818604 18.32979492 -0.1157959 19 0 C19.66 0.99 20.32 1.98 21 3 C20.67 3.99 20.34 4.98 20 6 C19.34 5.01 18.68 4.02 18 3 C16.06923522 2.58571654 16.06923522 2.58571654 13.8671875 2.70703125 C13.06152344 2.71669922 12.25585938 2.72636719 11.42578125 2.73632812 C10.58402344 2.76146484 9.74226562 2.78660156 8.875 2.8125 C8.02550781 2.82603516 7.17601562 2.83957031 6.30078125 2.85351562 C4.20025163 2.88891781 2.10004707 2.94272599 0 3 C0 2.01 0 1.02 0 0 Z " fill="#E2EAC9" transform="translate(138,134)"/>
<path d="M0 0 C0.33 0 0.66 0 1 0 C1.22245393 1.60226955 1.42746669 3.20696767 1.625 4.8125 C1.74101562 5.70582031 1.85703125 6.59914063 1.9765625 7.51953125 C2 10 2 10 0 13 C-3.125 13.6875 -3.125 13.6875 -6 14 C-5.71382812 13.44828125 -5.42765625 12.8965625 -5.1328125 12.328125 C-3.92260849 9.84094711 -2.8904694 7.32252247 -1.875 4.75 C-1.52179688 3.85796875 -1.16859375 2.9659375 -0.8046875 2.046875 C-0.53914062 1.37140625 -0.27359375 0.6959375 0 0 Z " fill="#F5F2DA" transform="translate(150,90)"/>
<path d="M0 0 C2.0245738 1.93254772 3.42105792 3.63158688 5 6 C7.58742306 6.58449417 7.58742306 6.58449417 10.5 6.6875 C11.96953125 6.78611328 11.96953125 6.78611328 13.46875 6.88671875 C14.97812783 6.95426807 16.4891114 7 18 7 C18 7.66 18 8.32 18 9 C15.58303128 9.05411124 13.16728213 9.09372278 10.75 9.125 C10.06808594 9.14175781 9.38617188 9.15851563 8.68359375 9.17578125 C4.9391765 9.21213482 2.17647273 9.07944349 -1 7 C-1 6.34 -1 5.68 -1 5 C-0.34 5 0.32 5 1 5 C0.67 3.35 0.34 1.7 0 0 Z " fill="#A4C073" transform="translate(156,152)"/>
<path d="M0 0 C2 2 2 2 2.1953125 5.4765625 C2.18201493 6.85950968 2.15816232 8.24238654 2.125 9.625 C2.11597656 10.33140625 2.10695312 11.0378125 2.09765625 11.765625 C2.07407603 13.51056098 2.03820461 15.25532295 2 17 C2.66 17.33 3.32 17.66 4 18 C2.02 18 0.04 18 -2 18 C-1.34 12.06 -0.68 6.12 0 0 Z " fill="#8FBA48" transform="translate(168,142)"/>
<path d="M0 0 C2.33294775 -0.04241723 4.66702567 -0.04092937 7 0 C8 1 8 1 8.09765625 2.84765625 C8.04882812 5.92382812 8.04882812 5.92382812 8 9 C7.34 9 6.68 9 6 9 C6 6.69 6 4.38 6 2 C5.01 2.33 4.02 2.66 3 3 C2.67 4.98 2.34 6.96 2 9 C1.34 9 0.68 9 0 9 C0 6.03 0 3.06 0 0 Z " fill="#ACACAC" transform="translate(104,173)"/>
<path d="M0 0 C0.33 0 0.66 0 1 0 C1 7.26 1 14.52 1 22 C0.01 22 -0.98 22 -2 22 C-2 22.66 -2 23.32 -2 24 C1.3 24 4.6 24 8 24 C8 24.33 8 24.66 8 25 C4.37 25 0.74 25 -3 25 C-4 23 -4 23 -3.6875 20.9375 C-3 19 -3 19 -1 18 C-0.505 9.09 -0.505 9.09 0 0 Z " fill="#E2F2C6" transform="translate(142,137)"/>
<path d="M0 0 C1.0878503 3.49301931 1.06849035 6.66966965 1 10.3125 C0.95763678 15.01481706 1.14090815 19.38238131 2 24 C1.01 24.33 0.02 24.66 -1 25 C-3.32827795 16.65545184 -1.58228748 8.34939198 0 0 Z " fill="#F8EFD0" transform="translate(69,68)"/>
<path d="M0 0 C0.66 0.33 1.32 0.66 2 1 C2.125 6.75 2.125 6.75 1 9 C-0.45792884 9.05399736 -1.91642712 9.09279177 -3.375 9.125 C-4.18710938 9.14820313 -4.99921875 9.17140625 -5.8359375 9.1953125 C-8 9 -8 9 -10 7 C-10.125 3.875 -10.125 3.875 -10 1 C-9.67 1.66 -9.34 2.32 -9 3 C-8.34 3 -7.68 3 -7 3 C-6.67 3.99 -6.34 4.98 -6 6 C-4.02 6 -2.04 6 0 6 C0 4.02 0 2.04 0 0 Z " fill="#ADC27D" transform="translate(186,152)"/>
<path d="M0 0 C1.32 0 2.64 0 4 0 C4 0.66 4 1.32 4 2 C12.91 2 21.82 2 31 2 C31 2.33 31 2.66 31 3 C15.16 3.495 15.16 3.495 -1 4 C-0.67 2.68 -0.34 1.36 0 0 Z " fill="#F3FCE0" transform="translate(180,132)"/>
<path d="M0 0 C1.22596039 3.67788118 0.84310077 4.78449613 0 9 C-3.63 8.67 -7.26 8.34 -11 8 C-10.67 5.69 -10.34 3.38 -10 1 C-9.6596875 1.9590625 -9.6596875 1.9590625 -9.3125 2.9375 C-8.14749104 5.27193661 -8.14749104 5.27193661 -5.375 5.75 C-4.59125 5.8325 -3.8075 5.915 -3 6 C-2.690625 5.195625 -2.38125 4.39125 -2.0625 3.5625 C-1 1 -1 1 0 0 Z " fill="#E2EFCB" transform="translate(175,128)"/>
<path d="M0 0 C0.99 0 1.98 0 3 0 C3.33 0.99 3.66 1.98 4 3 C3.05184571 4.69669715 2.03655068 6.35581617 1 8 C-0.39856847 10.97195801 -1.70461375 13.9818158 -3 17 C-3.33 17 -3.66 17 -4 17 C-4.125 13.625 -4.125 13.625 -4 10 C-3.34 9.34 -2.68 8.68 -2 8 C-1.61781233 6.34385343 -1.28604898 4.67542976 -1 3 C-0.67 2.01 -0.34 1.02 0 0 Z " fill="#F6F3DD" transform="translate(74,50)"/>
<path d="M0 0 C0.66 0 1.32 0 2 0 C2 4.29 2 8.58 2 13 C1.01 13 0.02 13 -1 13 C-1.22786458 10.98177083 -1.45572917 8.96354167 -1.68359375 6.9453125 C-1.91292961 4.92595684 -1.91292961 4.92595684 -3 3 C-2.34 3 -1.68 3 -1 3 C-0.67 2.01 -0.34 1.02 0 0 Z " fill="#C3C3C3" transform="translate(162,169)"/>
<path d="M0 0 C0.33 0 0.66 0 1 0 C1 2.97 1 5.94 1 9 C3.64 8.34 6.28 7.68 9 7 C9 9.64 9 12.28 9 15 C8.34 14.34 7.68 13.68 7 13 C5.989375 12.835 4.97875 12.67 3.9375 12.5 C2.968125 12.335 1.99875 12.17 1 12 C-0.26237731 9.47524538 -0.09856404 7.68799534 -0.0625 4.875 C-0.05347656 3.96492187 -0.04445312 3.05484375 -0.03515625 2.1171875 C-0.02355469 1.41851562 -0.01195312 0.71984375 0 0 Z " fill="#ABC179" transform="translate(200,137)"/>
<path d="M0 0 C0.66 0 1.32 0 2 0 C2.66 5.28 3.32 10.56 4 16 C2.35 16 0.7 16 -1 16 C-0.67 10.72 -0.34 5.44 0 0 Z " fill="#92BA43" transform="translate(197,144)"/>
<path d="M0 0 C0.99 0.33 1.98 0.66 3 1 C3.33 2.65 3.66 4.3 4 6 C6.97 6 9.94 6 13 6 C13.33 5.01 13.66 4.02 14 3 C14.33 4.32 14.66 5.64 15 7 C9.72 7 4.44 7 -1 7 C-0.67 4.69 -0.34 2.38 0 0 Z " fill="#93B64F" transform="translate(90,153)"/>
<path d="M0 0 C0.66 0 1.32 0 2 0 C2 0.66 2 1.32 2 2 C7.28 2 12.56 2 18 2 C18.33 1.34 18.66 0.68 19 0 C19 0.66 19 1.32 19 2 C20.98 2 22.96 2 25 2 C25.33 1.34 25.66 0.68 26 0 C26.66 0.66 27.32 1.32 28 2 C25.04335481 3.4783226 22.25770263 3.06032783 19 3 C18.67 3.66 18.34 4.32 18 5 C18 4.34 18 3.68 18 3 C11.73 3 5.46 3 -1 3 C-0.67 2.01 -0.34 1.02 0 0 Z " fill="#F5FDE7" transform="translate(86,132)"/>
<path d="M0 0 C1.20628008 2.33214148 2.1654738 4.49642139 3 7 C0.36 7.66 -2.28 8.32 -5 9 C-4.5206753 4.68607774 -3.2542015 2.83430453 0 0 Z " fill="#90BA47" transform="translate(151,42)"/>
<path d="M0 0 C2.5625 0.1875 2.5625 0.1875 4.5625 2.1875 C4.5625 3.1775 4.5625 4.1675 4.5625 5.1875 C3.9025 4.8575 3.2425 4.5275 2.5625 4.1875 C1.23389075 3.83580932 -0.09908328 3.49979724 -1.4375 3.1875 C-1.7675 3.8475 -2.0975 4.5075 -2.4375 5.1875 C-0.4575 5.6825 -0.4575 5.6825 1.5625 6.1875 C1.5625 7.1775 1.5625 8.1675 1.5625 9.1875 C-2.3125 7.3125 -2.3125 7.3125 -3.4375 6.1875 C-3.5625 3.6875 -3.5625 3.6875 -3.4375 1.1875 C-2.4375 0.1875 -2.4375 0.1875 0 0 Z " fill="#EDF6D6" transform="translate(184.4375,136.8125)"/>
<path d="M0 0 C0 0.66 0 1.32 0 2 C1.32 2.33 2.64 2.66 4 3 C4 3.66 4 4.32 4 5 C4.66 5 5.32 5 6 5 C6.33 6.32 6.66 7.64 7 9 C6.01 9 5.02 9 4 9 C3.2575 8.030625 2.515 7.06125 1.75 6.0625 C-0.49241611 3.14804482 -0.91163408 3.0202807 -4.8125 2.125 C-6.3903125 2.063125 -6.3903125 2.063125 -8 2 C-8 1.67 -8 1.34 -8 1 C-2.25 0 -2.25 0 0 0 Z " fill="#E8EFD1" transform="translate(114,134)"/>
<path d="M0 0 C0.33 0.66 0.66 1.32 1 2 C-1.36664989 5.88806767 -2.90350401 8.08830187 -7 10 C-8.26804566 12.0335948 -8.26804566 12.0335948 -9 14 C-9.33 13.34 -9.66 12.68 -10 12 C-7.51965443 7.16985337 -4.5303856 3.02025707 0 0 Z " fill="#E1AC53" transform="translate(84,46)"/>
<path d="M0 0 C1.98 0 3.96 0 6 0 C6 1.32 6 2.64 6 4 C5.01 4.495 5.01 4.495 4 5 C4 5.66 4 6.32 4 7 C2.35 7 0.7 7 -1 7 C-0.67 4.69 -0.34 2.38 0 0 Z " fill="#FBFCF7" transform="translate(95,139)"/>
<path d="M0 0 C0.556875 0.391875 1.11375 0.78375 1.6875 1.1875 C1.0275 1.1875 0.3675 1.1875 -0.3125 1.1875 C-0.3125 1.8475 -0.3125 2.5075 -0.3125 3.1875 C-6.0625 6.1875 -6.0625 6.1875 -8.3125 6.1875 C-8.125 4.375 -8.125 4.375 -7.3125 2.1875 C-3.21947674 -1.1311675 -3.21947674 -1.1311675 0 0 Z " fill="#F9F5DD" transform="translate(128.3125,97.8125)"/>
<path d="M0 0 C0.33 0 0.66 0 1 0 C1.39410681 10.04972376 1.39410681 10.04972376 -1 14 C-3.0625 15.125 -3.0625 15.125 -5 16 C-5.33 16.99 -5.66 17.98 -6 19 C-6.99 18.34 -7.98 17.68 -9 17 C-8.34 17 -7.68 17 -7 17 C-7 16.34 -7 15.68 -7 15 C-6.38125 14.95875 -5.7625 14.9175 -5.125 14.875 C-2.72578492 14.16829057 -2.72578492 14.16829057 -1.8125 11.4375 C-0.90747408 7.60854418 -0.40471227 3.91221861 0 0 Z " fill="#E3F0CA" transform="translate(159,34)"/>
<path d="M0 0 C0.33 0 0.66 0 1 0 C1 1.98 1 3.96 1 6 C0.01 6.495 0.01 6.495 -1 7 C-1.72693904 8.97888961 -2.39816251 10.97954558 -3 13 C-4.98 13.33 -6.96 13.66 -9 14 C-8.34 13.67 -7.68 13.34 -7 13 C-6.67 12.01 -6.34 11.02 -6 10 C-5.34 10 -4.68 10 -4 10 C-3.71125 9.278125 -3.4225 8.55625 -3.125 7.8125 C-2.08333333 5.20833333 -1.04166667 2.60416667 0 0 Z " fill="#E5B460" transform="translate(137,86)"/>
<path d="M0 0 C1.98 0 3.96 0 6 0 C7.24546405 2.49092811 6.7767578 3.41080733 6 6 C4.35 5.67 2.7 5.34 1 5 C0.67 3.35 0.34 1.7 0 0 Z " fill="#8FBA47" transform="translate(120,71)"/>
<path d="M0 0 C0 0.66 0 1.32 0 2 C-2.96187272 4.17204 -5.50685991 5.83561997 -9 7 C-9.33 5.02 -9.66 3.04 -10 1 C-9.67 1.66 -9.34 2.32 -9 3 C-8.34 3 -7.68 3 -7 3 C-7 2.34 -7 1.68 -7 1 C-4.50935112 0.31292445 -2.62113708 0 0 0 Z " fill="#F8F3D9" transform="translate(90,41)"/>
<path d="M0 0 C2.48020497 0.11341491 4.95844969 0.24014686 7.4375 0.375 C8.14455078 0.4059375 8.85160156 0.436875 9.58007812 0.46875 C11.39239188 0.57280629 13.19817988 0.77919892 15 1 C15.33 1.66 15.66 2.32 16 3 C10.72 3 5.44 3 0 3 C0 2.01 0 1.02 0 0 Z " fill="#FCF3D5" transform="translate(102,34)"/>
<path d="M0 0 C0.66 0 1.32 0 2 0 C2 2.97 2 5.94 2 9 C3.32 9 4.64 9 6 9 C6 9.66 6 10.32 6 11 C2.37 11 -1.26 11 -5 11 C-5 10.34 -5 9.68 -5 9 C-2.03 9.495 -2.03 9.495 1 10 C0.84402344 9.36191406 0.68804687 8.72382813 0.52734375 8.06640625 C0.23537109 6.82697266 0.23537109 6.82697266 -0.0625 5.5625 C-0.25972656 4.73878906 -0.45695313 3.91507813 -0.66015625 3.06640625 C-0.77230469 2.38449219 -0.88445312 1.70257813 -1 1 C-0.67 0.67 -0.34 0.34 0 0 Z " fill="#A7C277" transform="translate(145,150)"/>
<path d="M0 0 C4.62 0 9.24 0 14 0 C14 1.65 14 3.3 14 5 C13.01 4.34 12.02 3.68 11 3 C11 2.34 11 1.68 11 1 C8.36 1 5.72 1 3 1 C3 1.99 3 2.98 3 4 C2.01 4 1.02 4 0 4 C0 2.68 0 1.36 0 0 Z " fill="#95B557" transform="translate(69,136)"/>
<path d="M0 0 C1.65 0 3.3 0 5 0 C3.02 0.99 3.02 0.99 1 2 C1 2.66 1 3.32 1 4 C-0.65788785 5.34423339 -2.32576317 6.67618483 -4 8 C-5.76323505 10.12603185 -5.76323505 10.12603185 -7 12 C-6.67 10.02 -6.34 8.04 -6 6 C-5.34 6 -4.68 6 -4 6 C-4.33 5.01 -4.66 4.02 -5 3 C-4.360625 2.87625 -3.72125 2.7525 -3.0625 2.625 C-2.0415625 2.315625 -2.0415625 2.315625 -1 2 C-0.67 1.34 -0.34 0.68 0 0 Z " fill="#E1B056" transform="translate(93,52)"/>
<path d="M0 0 C0.99 0 1.98 0 3 0 C3 3.3 3 6.6 3 10 C0.03 9.505 0.03 9.505 -3 9 C-1.33333333 7.33333333 0.33333333 5.66666667 2 4 C1.34 4 0.68 4 0 4 C0 2.68 0 1.36 0 0 Z " fill="#FCFDFB" transform="translate(40,138)"/>
<path d="M0 0 C0.66 0 1.32 0 2 0 C2.36444983 4.25191465 1.56111503 6.58517997 -1 10 C-1.99 10.33 -2.98 10.66 -4 11 C-3.67 9.68 -3.34 8.36 -3 7 C-2.34 7 -1.68 7 -1 7 C-1 6.01 -1 5.02 -1 4 C-1.99 3.67 -2.98 3.34 -4 3 C-3.01 2.67 -2.02 2.34 -1 2 C-0.67 1.34 -0.34 0.68 0 0 Z " fill="#FAF9E4" transform="translate(134,86)"/>
<path d="M0 0 C0.33 0 0.66 0 1 0 C1.03738281 0.76183594 1.07476562 1.52367188 1.11328125 2.30859375 C1.53848412 8.98678001 2.50385324 14.78318166 5 21 C3.5 19.625 3.5 19.625 2 18 C2 17.34 2 16.68 2 16 C1.34 16 0.68 16 0 16 C0 10.72 0 5.44 0 0 Z " fill="#DFB25E" transform="translate(81,72)"/>
<path d="M0 0 C2.475 0.495 2.475 0.495 5 1 C4.01 1.33 3.02 1.66 2 2 C2 2.66 2 3.32 2 4 C2.99 4.33 3.98 4.66 5 5 C4.67 6.32 4.34 7.64 4 9 C2.68 9 1.36 9 0 9 C0 8.34 0 7.68 0 7 C0.99 6.67 1.98 6.34 3 6 C2.01 5.67 1.02 5.34 0 5 C0 3.35 0 1.7 0 0 Z " fill="#A5A5A5" transform="translate(179,173)"/>
<path d="M0 0 C1.98 0.495 1.98 0.495 4 1 C3.01 1.33 2.02 1.66 1 2 C1 2.66 1 3.32 1 4 C1.99 4.33 2.98 4.66 4 5 C3.67 6.32 3.34 7.64 3 9 C1.68 9 0.36 9 -1 9 C-1 8.34 -1 7.68 -1 7 C-0.34 6.67 0.32 6.34 1 6 C0.34 5.34 -0.32 4.68 -1 4 C-0.625 1.875 -0.625 1.875 0 0 Z " fill="#A6A6A6" transform="translate(139,173)"/>
<path d="M0 0 C2.475 0.495 2.475 0.495 5 1 C5 3.64 5 6.28 5 9 C4.01 9 3.02 9 2 9 C1.34 6.03 0.68 3.06 0 0 Z " fill="#FCFDFC" transform="translate(103,143)"/>
<path d="M0 0 C0.66 0.33 1.32 0.66 2 1 C1.67 2.32 1.34 3.64 1 5 C0.2575 4.95875 -0.485 4.9175 -1.25 4.875 C-3.97841527 4.80744481 -3.97841527 4.80744481 -6.0625 6.0625 C-8.49909608 7.2414981 -9.47647171 6.75023814 -12 6 C-11.38511719 5.73445313 -10.77023438 5.46890625 -10.13671875 5.1953125 C-9.32847656 4.84210938 -8.52023438 4.48890625 -7.6875 4.125 C-6.88699219 3.77695313 -6.08648437 3.42890625 -5.26171875 3.0703125 C-2.8038166 1.97428106 -2.8038166 1.97428106 0 0 Z M-3 6 C-1 7 -1 7 -1 7 Z " fill="#F3ECCB" transform="translate(134,112)"/>
<path d="M0 0 C2.97 0.495 2.97 0.495 6 1 C6 2.65 6 4.3 6 6 C5.01 6 4.02 6 3 6 C3 5.34 3 4.68 3 4 C2.01 4 1.02 4 0 4 C0 2.68 0 1.36 0 0 Z " fill="#F5FBEF" transform="translate(50,138)"/>
<path d="M0 0 C3.07921132 -0.25660094 5.21136993 -0.39431504 8 1 C7.67 2.32 7.34 3.64 7 5 C6.67 4.67 6.34 4.34 6 4 C4.65252916 3.76924918 3.29622435 3.58846937 1.9375 3.4375 C0.638125 3.293125 -0.66125 3.14875 -2 3 C-1.34 2.01 -0.68 1.02 0 0 Z " fill="#F7F9EA" transform="translate(126,132)"/>
<path d="M0 0 C2.95857409 -0.05379226 5.91617721 -0.09357093 8.875 -0.125 C9.71675781 -0.14175781 10.55851562 -0.15851562 11.42578125 -0.17578125 C12.23144531 -0.18222656 13.03710938 -0.18867187 13.8671875 -0.1953125 C14.98262939 -0.21102295 14.98262939 -0.21102295 16.12060547 -0.22705078 C18 0 18 0 20 2 C18.90300781 1.98839844 17.80601563 1.97679687 16.67578125 1.96484375 C15.22135588 1.95546036 13.76692865 1.94636075 12.3125 1.9375 C11.59126953 1.92912109 10.87003906 1.92074219 10.12695312 1.91210938 C6.28444618 1.89456368 2.73360474 2.06475779 -1 3 C-0.67 2.01 -0.34 1.02 0 0 Z " fill="#DEAE55" transform="translate(100,49)"/>
<path d="M0 0 C0.1953125 6.0546875 0.1953125 6.0546875 0 8 C-0.66 8.66 -1.32 9.32 -2 10 C-2 7.69 -2 5.38 -2 3 C-3.98 3 -5.96 3 -8 3 C-3.5 0 -3.5 0 0 0 Z " fill="#9ABA61" transform="translate(159,34)"/>
<path d="M0 0 C1.32 0 2.64 0 4 0 C4 5.94 4 11.88 4 18 C3.67 18 3.34 18 3 18 C3 13.05 3 8.1 3 3 C2.01 3 1.02 3 0 3 C0 2.01 0 1.02 0 0 Z " fill="#F7FDEC" transform="translate(138,137)"/>
<path d="M0 0 C0.66 0 1.32 0 2 0 C3.03046722 1.78614318 4.04913236 3.57910018 5.0625 5.375 C5.63097656 6.37273438 6.19945312 7.37046875 6.78515625 8.3984375 C7.38650391 9.68621094 7.38650391 9.68621094 8 11 C7.67 11.66 7.34 12.32 7 13 C6.67 11.68 6.34 10.36 6 9 C5.34 9 4.68 9 4 9 C3.34 7.02 2.68 5.04 2 3 C0.68 3.33 -0.64 3.66 -2 4 C-1.34 2.68 -0.68 1.36 0 0 Z " fill="#DDB161" transform="translate(142,52)"/>
<path d="M0 0 C3.3 0.33 6.6 0.66 10 1 C10.33 2.98 10.66 4.96 11 7 C10.34 7 9.68 7 9 7 C9 6.34 9 5.68 9 5 C8.071875 4.7834375 8.071875 4.7834375 7.125 4.5625 C5 4 5 4 3 3 C3 2.34 3 1.68 3 1 C2.01 0.67 1.02 0.34 0 0 Z " fill="#E5B05C" transform="translate(120,51)"/>
<path d="M0 0 C0.66 0.33 1.32 0.66 2 1 C2.38063221 3.3260857 2.71269945 5.66055264 3 8 C3.33 8.66 3.66 9.32 4 10 C3.91348369 11.54613014 3.75997364 13.08909387 3.5625 14.625 C3.46066406 15.44226562 3.35882813 16.25953125 3.25390625 17.1015625 C3.17011719 17.72804688 3.08632812 18.35453125 3 19 C2.67 19 2.34 19 2 19 C1.92652344 18.11248047 1.92652344 18.11248047 1.8515625 17.20703125 C1.37592404 12.11329526 1.37592404 12.11329526 -0.125 7.25 C-1.21081424 4.45790625 -0.8100803 2.83528103 0 0 Z " fill="#E5E1AB" transform="translate(133,40)"/>
<path d="M0 0 C3.96 0 7.92 0 12 0 C8.32326162 1.83836919 4.95007553 2.93651813 1 4 C0.67 2.68 0.34 1.36 0 0 Z " fill="#F7F4DD" transform="translate(90,37)"/>
<path d="M0 0 C0.66 0 1.32 0 2 0 C3.37432457 3.81756824 2.67975039 7.07255329 2 11 C1.34 11 0.68 11 0 11 C-0.19491452 9.54263913 -0.38069358 8.08405407 -0.5625 6.625 C-0.66691406 5.81289062 -0.77132812 5.00078125 -0.87890625 4.1640625 C-1 2 -1 2 0 0 Z " fill="#9F9F9E" transform="translate(147,171)"/>
<path d="M0 0 C1.65 0 3.3 0 5 0 C4.67 0.99 4.34 1.98 4 3 C3.34 3 2.68 3 2 3 C2 4.98 2 6.96 2 9 C1.34 9 0.68 9 0 9 C0 6.03 0 3.06 0 0 Z " fill="#B0B0B0" transform="translate(154,173)"/>
<path d="M0 0 C1.41377341 2.63904371 2.37240135 5.07120629 3 8 C2.01 8.495 2.01 8.495 1 9 C-0.5 7.75 -0.5 7.75 -2 6 C-2 4.68 -2 3.36 -2 2 C-1.34 2 -0.68 2 0 2 C0 1.34 0 0.68 0 0 Z " fill="#8EB94A" transform="translate(179,138)"/>
<path d="M0 0 C0.99 0.495 0.99 0.495 2 1 C2.66 1 3.32 1 4 1 C3.67 2.32 3.34 3.64 3 5 C4.32 4.67 5.64 4.34 7 4 C6.67 4.99 6.34 5.98 6 7 C4.33388095 7.042721 2.66617115 7.04063832 1 7 C0 6 0 6 -0.0625 2.9375 C-0.041875 1.968125 -0.02125 0.99875 0 0 Z " fill="#B0C77D" transform="translate(166,127)"/>
<path d="M0 0 C0.66 0 1.32 0 2 0 C1.75 2.875 1.75 2.875 1 6 C-0.875 7.4375 -0.875 7.4375 -3 8 C-3.99 7.67 -4.98 7.34 -6 7 C-4.625 5.5 -4.625 5.5 -3 4 C-2.34 4 -1.68 4 -1 4 C-0.67 2.68 -0.34 1.36 0 0 Z " fill="#F6EAC4" transform="translate(142,104)"/>
<path d="M0 0 C1.32 0.33 2.64 0.66 4 1 C3.67 4.63 3.34 8.26 3 12 C2.67 12 2.34 12 2 12 C1.67 9.36 1.34 6.72 1 4 C0.67 4.66 0.34 5.32 0 6 C-0.66 5.67 -1.32 5.34 -2 5 C-1.34 3.35 -0.68 1.7 0 0 Z " fill="#E4E4E3" transform="translate(151,170)"/>
<path d="M0 0 C1.32 0 2.64 0 4 0 C4 2.64 4 5.28 4 8 C2.68 8 1.36 8 0 8 C0 5.36 0 2.72 0 0 Z " fill="#FAFCF6" transform="translate(74,150)"/>
<path d="M0 0 C0.66 0 1.32 0 2 0 C2.33 3.63 2.66 7.26 3 11 C2.01 11.33 1.02 11.66 0 12 C0 8.04 0 4.08 0 0 Z " fill="#8CB943" transform="translate(144,139)"/>
<path d="M0 0 C2 1 2 1 4 3 C4 3.99 4 4.98 4 6 C1.36 5.67 -1.28 5.34 -4 5 C-3.34 4.01 -2.68 3.02 -2 2 C-1.34 2 -0.68 2 0 2 C0 1.34 0 0.68 0 0 Z " fill="#EFF5E4" transform="translate(174,120)"/>
<path d="M0 0 C0 2 0 2 -2.125 4.1875 C-5 6 -5 6 -8.3125 5.75 C-9.199375 5.5025 -10.08625 5.255 -11 5 C-3.5 0 -3.5 0 0 0 Z " fill="#E3B25F" transform="translate(128,101)"/>
<path d="M0 0 C0.66 0.66 1.32 1.32 2 2 C4.57061311 2.64767793 4.57061311 2.64767793 7 3 C7 3.66 7 4.32 7 5 C5.39125 4.7215625 5.39125 4.7215625 3.75 4.4375 C0.59608454 4.0695432 -1.09818492 3.95534657 -4 5 C-4 4.01 -4 3.02 -4 2 C-2.68 2 -1.36 2 0 2 C0 1.34 0 0.68 0 0 Z " fill="#EFEFEF" transform="translate(60,179)"/>
<path d="M0 0 C1.32 0 2.64 0 4 0 C4.33 1.32 4.66 2.64 5 4 C3.35 4.33 1.7 4.66 0 5 C-0.33 4.01 -0.66 3.02 -1 2 C-0.67 1.34 -0.34 0.68 0 0 Z " fill="#ECEDEC" transform="translate(63,175)"/>
<path d="M0 0 C0.33 0.99 0.66 1.98 1 3 C1.515625 3.495 2.03125 3.99 2.5625 4.5 C4 6 4 6 4 9 C2.68 8.67 1.36 8.34 0 8 C-1.125 2.25 -1.125 2.25 0 0 Z " fill="#95BB4D" transform="translate(153,148)"/>
<path d="M0 0 C1.32 0.33 2.64 0.66 4 1 C4 2.65 4 4.3 4 6 C3.34 6 2.68 6 2 6 C1.34 6.66 0.68 7.32 0 8 C0 5.36 0 2.72 0 0 Z " fill="#FAFBF3" transform="translate(39,152)"/>
<path d="M0 0 C1.485 0.99 1.485 0.99 3 2 C3.40843923 4.71203652 3.13336867 7.2437142 3 10 C2.67 9.34 2.34 8.68 2 8 C1.01 8 0.02 8 -1 8 C-0.67 5.36 -0.34 2.72 0 0 Z " fill="#F6FBF1" transform="translate(211,146)"/>
<path d="M0 0 C0.33 0 0.66 0 1 0 C1 2.64 1 5.28 1 8 C0.34 7.34 -0.32 6.68 -1 6 C-2.98821313 5.60235737 -4.98944339 5.26224651 -7 5 C-7 4.34 -7 3.68 -7 3 C-5.5459375 2.814375 -5.5459375 2.814375 -4.0625 2.625 C-2.5465625 2.315625 -2.5465625 2.315625 -1 2 C-0.67 1.34 -0.34 0.68 0 0 Z " fill="#9DB769" transform="translate(80,144)"/>
<path d="M0 0 C1.65 0 3.3 0 5 0 C4.01 3.3 3.02 6.6 2 10 C1 6 1 6 1 3 C0.01 3.495 0.01 3.495 -1 4 C-0.67 2.68 -0.34 1.36 0 0 Z " fill="#E7A746" transform="translate(81,62)"/>
<path d="M0 0 C0.99 0 1.98 0 3 0 C4.125 3.75 4.125 3.75 3 6 C0.5625 5.625 0.5625 5.625 -2 5 C-2.33 4.34 -2.66 3.68 -3 3 C-2.34 3 -1.68 3 -1 3 C-0.67 2.01 -0.34 1.02 0 0 Z " fill="#99BD59" transform="translate(138,44)"/>
<path d="M0 0 C1.21386936 3.64160808 0.6674695 4.33165469 -0.9375 7.6875 C-1.31777344 8.49574219 -1.69804688 9.30398437 -2.08984375 10.13671875 C-2.39019531 10.75160156 -2.69054688 11.36648437 -3 12 C-3.66 12 -4.32 12 -5 12 C-4.54965877 10.37276701 -4.08944646 8.74826336 -3.625 7.125 C-3.36976562 6.22007812 -3.11453125 5.31515625 -2.8515625 4.3828125 C-2 2 -2 2 0 0 Z " fill="#A0A0A0" transform="translate(51,170)"/>
<path d="M0 0 C1.485 0.99 1.485 0.99 3 2 C3.29296875 4.1640625 3.29296875 4.1640625 3.1875 6.625 C3.16042969 7.44226563 3.13335937 8.25953125 3.10546875 9.1015625 C3.07066406 9.72804687 3.03585938 10.35453125 3 11 C2.67 11 2.34 11 2 11 C2 9.02 2 7.04 2 5 C1.34 5 0.68 5 0 5 C-0.33 5.66 -0.66 6.32 -1 7 C-0.67 4.69 -0.34 2.38 0 0 Z " fill="#EFF7D9" transform="translate(80,139)"/>
<path d="M0 0 C2 2 2 2 2 5 C2.66 5 3.32 5 4 5 C4 3.35 4 1.7 4 0 C4.33 0 4.66 0 5 0 C5 2.64 5 5.28 5 8 C2.525 7.01 2.525 7.01 0 6 C0 4.02 0 2.04 0 0 Z " fill="#9FC264" transform="translate(56,138)"/>
<path d="M0 0 C1.875 0.3125 1.875 0.3125 4 1 C4.66 1.99 5.32 2.98 6 4 C3.36 4 0.72 4 -2 4 C-2.33 3.34 -2.66 2.68 -3 2 C-2.01 2 -1.02 2 0 2 C0 1.34 0 0.68 0 0 Z " fill="#91B651" transform="translate(130,78)"/>
<path d="M0 0 C1.98 0.495 1.98 0.495 4 1 C3.67 2.32 3.34 3.64 3 5 C1.68 5 0.36 5 -1 5 C-0.67 3.35 -0.34 1.7 0 0 Z " fill="#F0F0F0" transform="translate(84,175)"/>
<path d="M0 0 C0.66 0.33 1.32 0.66 2 1 C2 1.66 2 2.32 2 3 C-3.94 3 -9.88 3 -16 3 C-16 2.67 -16 2.34 -16 2 C-14.92878906 1.93941406 -13.85757813 1.87882813 -12.75390625 1.81640625 C-11.35675609 1.73201463 -9.95962143 1.64736594 -8.5625 1.5625 C-7.50192383 1.50352539 -7.50192383 1.50352539 -6.41992188 1.44335938 C-2.91309581 1.52375562 -2.91309581 1.52375562 0 0 Z " fill="#F0FBDC" transform="translate(212,159)"/>
<path d="M0 0 C0.33 0 0.66 0 1 0 C1.13277344 0.62648437 1.26554687 1.25296875 1.40234375 1.8984375 C1.57894531 2.71570313 1.75554688 3.53296875 1.9375 4.375 C2.19853516 5.59316406 2.19853516 5.59316406 2.46484375 6.8359375 C2.92330693 9.029463 2.92330693 9.029463 4 11 C1.525 10.01 1.525 10.01 -1 9 C-1 8.34 -1 7.68 -1 7 C-1.99 6.67 -2.98 6.34 -4 6 C-3.01 6 -2.02 6 -1 6 C-0.67 4.02 -0.34 2.04 0 0 Z " fill="#A3C56E" transform="translate(20,146)"/>
<path d="M0 0 C-0.33 0.99 -0.66 1.98 -1 3 C-3.97 3 -6.94 3 -10 3 C-6.74534559 -0.25465441 -4.4822096 -1.60078914 0 0 Z " fill="#F5FBF3" transform="translate(134,117)"/>
<path d="M0 0 C1.98 0.495 1.98 0.495 4 1 C3.67 2.32 3.34 3.64 3 5 C1.68 4.67 0.36 4.34 -1 4 C-0.67 2.68 -0.34 1.36 0 0 Z " fill="#F4F4F3" transform="translate(118,175)"/>
<path d="M0 0 C0.99 0.66 1.98 1.32 3 2 C3 3.32 3 4.64 3 6 C1.35 5.67 -0.3 5.34 -2 5 C-1.34 3.35 -0.68 1.7 0 0 Z " fill="#FCFDF2" transform="translate(162,152)"/>
<path d="M0 0 C1.98 0.66 3.96 1.32 6 2 C5.360625 2.28875 4.72125 2.5775 4.0625 2.875 C1.84793921 3.82823451 1.84793921 3.82823451 1 6 C-2.875 4.25 -2.875 4.25 -4 2 C-3.01 2 -2.02 2 -1 2 C-0.67 1.34 -0.34 0.68 0 0 Z " fill="#A2C269" transform="translate(182,144)"/>
<path d="M0 0 C0.66 0 1.32 0 2 0 C2 1.65 2 3.3 2 5 C2.99 5.33 3.98 5.66 5 6 C5 7.65 5 9.3 5 11 C1.19015156 8.22920113 0.93159248 4.37131855 0 0 Z " fill="#E1B25E" transform="translate(70,88)"/>
<path d="M0 0 C0.99 0 1.98 0 3 0 C3 2.31 3 4.62 3 7 C2.34 6.01 1.68 5.02 1 4 C0.34 4.99 -0.32 5.98 -1 7 C-1.04254356 5.00045254 -1.04080783 2.99958364 -1 1 C-0.67 0.67 -0.34 0.34 0 0 Z " fill="#E7E7E7" transform="translate(107,175)"/>
<path d="M0 0 C1.37562854 1.28965176 2.70766393 2.62689293 4 4 C4 4.66 4 5.32 4 6 C1.03 5.505 1.03 5.505 -2 5 C-1.34 3.35 -0.68 1.7 0 0 Z " fill="#9DBE64" transform="translate(60,155)"/>
<path d="M0 0 C3.3 0 6.6 0 10 0 C10 1.65 10 3.3 10 5 C9.34 5 8.68 5 8 5 C7.67 3.68 7.34 2.36 7 1 C4.69 1 2.38 1 0 1 C0 0.67 0 0.34 0 0 Z " fill="#9EB66E" transform="translate(201,136)"/>
<path d="M0 0 C2.33944736 0.28730055 4.6739143 0.61936779 7 1 C6.67 1.99 6.34 2.98 6 4 C4.02 4 2.04 4 0 4 C-0.33 3.01 -0.66 2.02 -1 1 C-0.67 0.67 -0.34 0.34 0 0 Z " fill="#F8FBF2" transform="translate(119,65)"/>
<path d="M0 0 C2.31 0 4.62 0 7 0 C7 0.66 7 1.32 7 2 C7.66 2.33 8.32 2.66 9 3 C6.36 3 3.72 3 1 3 C0.67 2.01 0.34 1.02 0 0 Z " fill="#AFAFAF" transform="translate(115,179)"/>
<path d="M0 0 C0.99 0.33 1.98 0.66 3 1 C3 2.65 3 4.3 3 6 C2.01 6.33 1.02 6.66 0 7 C-0.38133299 5.0085944 -0.71325582 3.00720923 -1 1 C-0.67 0.67 -0.34 0.34 0 0 Z " fill="#F5F5F5" transform="translate(165,175)"/>
<path d="M0 0 C1.9375 0.3125 1.9375 0.3125 4 1 C4.33 1.99 4.66 2.98 5 4 C4.01 4 3.02 4 2 4 C1.34 5.32 0.68 6.64 0 8 C0 5.36 0 2.72 0 0 Z " fill="#E2F1C5" transform="translate(49,150)"/>
<path d="M0 0 C1.65 1.65 3.3 3.3 5 5 C2 7 2 7 0 7 C0 4.69 0 2.38 0 0 Z " fill="#E8F4D1" transform="translate(112,142)"/>
<path d="M0 0 C1.32 0 2.64 0 4 0 C3.67 0.99 3.34 1.98 3 3 C2.34 3 1.68 3 1 3 C0.67 3.66 0.34 4.32 0 5 C-0.66 5 -1.32 5 -2 5 C-1.125 1.125 -1.125 1.125 0 0 Z " fill="#F7F5E5" transform="translate(92,56)"/>
<path d="M0 0 C1.485 0.99 1.485 0.99 3 2 C3.1875 5.125 3.1875 5.125 3 8 C2.67 7.34 2.34 6.68 2 6 C1.34 6 0.68 6 0 6 C-1.125 2.25 -1.125 2.25 0 0 Z " fill="#E9A22E" transform="translate(131,52)"/>
<path d="M0 0 C0 0.66 0 1.32 0 2 C-0.99 2 -1.98 2 -3 2 C-3 2.99 -3 3.98 -3 5 C-4.98 5.33 -6.96 5.66 -9 6 C-7.625 4.5 -7.625 4.5 -6 3 C-5.34 3 -4.68 3 -4 3 C-4 2.34 -4 1.68 -4 1 C-2 0 -2 0 0 0 Z " fill="#E3B25E" transform="translate(94,40)"/>
<path d="M0 0 C0.33 0 0.66 0 1 0 C1 2.97 1 5.94 1 9 C0.67 8.34 0.34 7.68 0 7 C-0.66 7 -1.32 7 -2 7 C-2.33 5.68 -2.66 4.36 -3 3 C-2.01 3 -1.02 3 0 3 C0 2.01 0 1.02 0 0 Z " fill="#9FC05C" transform="translate(72,137)"/>
<path d="M0 0 C2.31 0.66 4.62 1.32 7 2 C7.33 1.34 7.66 0.68 8 0 C7.67 1.65 7.34 3.3 7 5 C4.11562221 3.70700306 2.12780579 2.34058637 0 0 Z " fill="#E3AD55" transform="translate(80,107)"/>
<path d="M0 0 C0.66 1.32 1.32 2.64 2 4 C-2.75 5.125 -2.75 5.125 -5 4 C-5 3.34 -5 2.68 -5 2 C-3.35 1.34 -1.7 0.68 0 0 Z " fill="#E6E6E5" transform="translate(145,173)"/>
<path d="M0 0 C0.66 0 1.32 0 2 0 C2.33 2.64 2.66 5.28 3 8 C1.68 8 0.36 8 -1 8 C-0.67 5.36 -0.34 2.72 0 0 Z " fill="#CCCCCC" transform="translate(51,169)"/>
<path d="M0 0 C2 2 2 2 2.125 5.125 C2.08375 6.07375 2.0425 7.0225 2 8 C0.68 7.67 -0.64 7.34 -2 7 C-1.34 4.69 -0.68 2.38 0 0 Z " fill="#8AB945" transform="translate(144,152)"/>
<path d="M0 0 C1.65 0 3.3 0 5 0 C5 1.32 5 2.64 5 4 C3.68 4 2.36 4 1 4 C0.67 2.68 0.34 1.36 0 0 Z " fill="#F9FCF4" transform="translate(94,150)"/>
<path d="M0 0 C0.33 0.66 0.66 1.32 1 2 C0.01 3.32 -0.98 4.64 -2 6 C-2 5.34 -2 4.68 -2 4 C-3.32 4 -4.64 4 -6 4 C-6 3.34 -6 2.68 -6 2 C-4.02 1.34 -2.04 0.68 0 0 Z " fill="#A0BD67" transform="translate(153,146)"/>
<path d="M0 0 C3.3 0 6.6 0 10 0 C10 1.65 10 3.3 10 5 C9.649375 4.525625 9.29875 4.05125 8.9375 3.5625 C6.15836457 1.32126175 3.4855283 1.32882342 0 1 C0 0.67 0 0.34 0 0 Z " fill="#99B564" transform="translate(94,136)"/>
<path d="M0 0 C0.66 0.33 1.32 0.66 2 1 C1.67 2.32 1.34 3.64 1 5 C-0.32 5.33 -1.64 5.66 -3 6 C-2.42655063 3.13275314 -2.1385485 2.1385485 0 0 Z " fill="#F7F9EB" transform="translate(123,98)"/>
<path d="M0 0 C0.66 0.66 1.32 1.32 2 2 C1.625 4.125 1.625 4.125 1 6 C-0.65 4.35 -2.3 2.7 -4 1 C-2.68 1.33 -1.36 1.66 0 2 C0 1.34 0 0.68 0 0 Z " fill="#B8D683" transform="translate(135,75)"/>
<path d="M0 0 C3.26954202 0.56371414 4.82575883 1.49962266 7 4 C6.67 4.66 6.34 5.32 6 6 C5.34 5.34 4.68 4.68 4 4 C1.93125966 3.3574765 1.93125966 3.3574765 0 3 C0 2.01 0 1.02 0 0 Z " fill="#E2B863" transform="translate(125,40)"/>
<path d="M0 0 C0.66 0.33 1.32 0.66 2 1 C2.625 3.5625 2.625 3.5625 3 6 C2.01 6 1.02 6 0 6 C-1.125 2.25 -1.125 2.25 0 0 Z " fill="#8CBE3E" transform="translate(154,38)"/>
</svg>
